/* XPM */
static char * 1_xpm[] = {
"64 64 10 1",
" 	c #553F73",
".	c #000000",
"+	c #CFC6B8",
"@	c #92918F",
"#	c #F4DA1B",
"$	c #1DF41B",
"%	c #757575",
"&	c #F41B1B",
"*	c #1B64F4",
"=	c #562F33",
"                                                                ",
"                                                                ",
"                                                                ",
"                    ................    ................        ",
"                   .++++++++++++++++.  .++++++++++++++++.       ",
"                   .++++++++++++++++.  .++++++++++++++++.       ",
"                   .+++++++++++@++++.  .++++++++++++++++.       ",
"                   .++++++++++@#@+++....++++++++++++++++.       ",
"                   .++++....++@##@++++++........++++....        ",
"                   .++++.  .++@#$#@+++++.      .++++.           ",
"                   .++++.  .++@#$#@@++++.      .++++.           ",
"                   .++++.  .++@##@@#@+++....   .++++........    ",
"        %%%%       .++++.  .++@#@+@##@++++++.  .++++++++++++.   ",
"        %%%%       .++++.  .+++@++@#&#@+++++.  .++++++++++++.   ",
"        %%%%       .++++.  .+++@++@#&#@+++++.  .++++++++++++.   ",
"        %%%%       .++++.  .++@#@+@##@++++++.  .++++++++++++.   ",
"        %%%%%%%%   .++++.  .++@##@@#@+++....   .++++........    ",
"        %%%%%%%%   .++++.  .++@#*#@@++++.      .++++.           ",
"        %%%%%%%%   .++++.  .++@#*#@+++++.      .++++.           ",
"        %%%%%%%%   .++++....++@##@++++++........++++........    ",
"            %%%%   .++++++++++@#@+++....++++++++++++++++++++.   ",
"            %%%%   .+++++++++++@++++.  .++++++++++++++++++++.   ",
"            %%%%   .++++++++++++++++.  .++++++++++++++++++++.   ",
"            %%%%   .++++++++++++++++....++++++++++++++++++++.   ",
"                    ................++++++++................    ",
"                            =======.++++++++.%%%%%%%%%%%        ",
"                            =======.++++++++.%%%%%%%%%%%        ",
"                            =======.++++++++....%%%%%%%%        ",
"                                ====....++++++++.%%%            ",
"                                =======.++++++++.%%%            ",
"                                =======.++++++++.%%%            ",
"                        ........=======.++++++++.%%%            ",
"    %%%%               .++++++++.   ====........                ",
"    %%%%               .++++++++.   ====    %%%%                ",
"    %%%%               .++++++++.   ====    %%%%                ",
"    %%%%            ....++++++++.   ====    %%%%                ",
"                   .++++++++....                                ",
"                   .++++++++.                                   ",
"                   .++++++++.                                   ",
"    ................++++++++................                    ",
"   .++++++++++++++++....++++++++++++++++++++.                   ",
"   .++++++++++++++++.  .++++++++++++++++++++.                   ",
"   .+++++++++++@++++.  .++++++++++++++++++++.                   ",
"   .++++++++++@#@+++....++++++++++++++++++++.                   ",
"   .++++....++@##@++++++........++++........                    ",
"   .++++.==.++@#*#@+++++.%%%   .++++.                           ",
"   .++++.==.++@#*#@@++++.%%%   .++++.                           ",
"   .++++.==.++@##@@#@+++....   .++++........                    ",
"   .++++.==.++@#@+@##@++++++.  .++++++++++++.   ====            ",
"   .++++.==.+++@++@#&#@+++++.  .++++++++++++.   ====            ",
"   .++++.==.+++@++@#&#@+++++.  .++++++++++++.   ====            ",
"   .++++.==.++@#@+@##@++++++.  .++++++++++++.   ====            ",
"   .++++.  .++@##@@#@+++....   .++++........    ========        ",
"   .++++.  .++@#$#@@++++.      .++++.           ========        ",
"   .++++.  .++@#$#@+++++.      .++++.           ========        ",
"   .++++....++@##@++++++........++++....        ========        ",
"   .++++++++++@#@+++....++++++++++++++++.           ====        ",
"   .+++++++++++@++++.  .++++++++++++++++.           ====        ",
"   .++++++++++++++++.  .++++++++++++++++.           ====        ",
"   .++++++++++++++++.  .++++++++++++++++.           ====        ",
"    ................    ................                        ",
"                                                                ",
"                                                                ",
"                                                                "};
