/* XPM */
static char * 6_xpm[] = {
"64 64 14 1",
" 	c #553F73",
".	c #B661D4",
"+	c #000000",
"@	c #38D973",
"#	c #CED461",
"$	c #CFC6B8",
"%	c #92918F",
"&	c #F4DA1B",
"*	c #1DF41B",
"=	c #EC0202",
"-	c #F41B1B",
";	c #1B64F4",
">	c #6188D4",
",	c #472D3C",
"                ....                                            ",
"                ....                                            ",
"                ....                                            ",
"                ....++++++++++++++++    ++++++++++++++++        ",
"    @@@@    ....###+$$$$$$$$$$$$$$$$+@@+$$$$$$$$$$$$$$$$+       ",
"    @@@@    ....###+$$$$$$$$$$$$$$$$+@@+$$$$$$$$$$$$$$$$+       ",
"    @@@@    ....###+$$$$$$$$$$$%$$$$+@@+$$$$$$$$$$$$$$$$+       ",
"    @@@@    ....###+$$$$$$$$$$%&%$$$++++$$$$$$$$$$$$$$$$+       ",
"    @@@@@@@@    ...+$$$$++++$$%&&%$$$$$$++++++++$$$$++++@@@@    ",
"    @@@@@@@@    ...+$$$$+  +$$%&*&%$$$$$+   ===+$$$$+   @@@@    ",
"    @@@@@@@@    ...+$$$$+  +$$%&*&%%$$$$+   ===+$$$$+   @@@@    ",
"    @@@@@@@@    ...+$$$$+  +$$%&&%%&%$$$++++###+$$$$++++++++    ",
"        @@@@       +$$$$+  +$$%&%$%&&%$$$$$$+##+$$$$$$$$$$$$+   ",
"        @@@@       +$$$$+  +$$$%$$%&-&%$$$$$+##+$$$$$$$$$$$$+   ",
"        @@@@       +$$$$+  +$$$%$$%&-&%$$$$$+##+$$$$$$$$$$$$+   ",
"        @@@@       +$$$$+  +$$%&%$%&&%$$$$$$+==+$$$$$$$$$$$$+   ",
"                   +$$$$+  +$$%&&%%&%$$$++++===+$$$$++++++++    ",
"                   +$$$$+  +$$%&;&%%$$$$+   ===+$$$$+@@@        ",
"                   +$$$$+  +$$%&;&%$$$$$+   ===+$$$$+@@@        ",
"                   +$$$$++++$$%&&%$$$$$$++++++++$$$$++++++++    ",
"                   +$$$$$$$$$$%&%$$$++++$$$$$$$$$$$$$$$$$$$$+   ",
"                   +$$$$$$$$$$$%$$$$+  +$$$$$$$$$$$$$$$$$$$$+   ",
"                   +$$$$$$$$$$$$$$$$+  +$$$$$$$$$$$$$$$$$$$$+   ",
"                   +$$$$$$$$$$$$$$$$++++$$$$$$$$$$$$$$$$$$$$+   ",
"                    ++++++++++++++++$$$$$$$$++++++++++++++++    ",
"                    @@@@@@@@ >>>>##+$$$$$$$$+@@@@@@@            ",
"                    @@@@@@@@ >>>>##+$$$$$$$$+@@@@@@@            ",
"                    @@@@@@@@ >>>>##+$$$$$$$$++++@@@@            ",
"        @@@@            @@@@ >>>>###++++$$$$$$$$+@@@            ",
"        @@@@            @@@@     >>>>  +$$$$$$$$+@@@            ",
"        @@@@            @@@@     >>>>  +$$$$$$$$+@@@            ",
"        @@@@            ++++++++ >>>>  +$$$$$$$$+@@@            ",
"    @@@@@@@@           +$$$$$$$$+>>>>   ++++++++                ",
"    @@@@@@@@           +$$$$$$$$+       @@@@                    ",
"    @@@@@@@@           +$$$$$$$$+       @@@@                    ",
"    @@@@@@@@        ++++$$$$$$$$+       @@@@                    ",
"    @@@@       ====+$$$$$$$$++++    @@@@@@@@        @@@@        ",
"    @@@@       ====+$$$$$$$$+       @@@@@@@@        @@@@        ",
"    @@@@       ====+$$$$$$$$+       @@@@@@@@        @@@@        ",
"    ++++++++++++++++$$$$$$$$++++++++++++++++        @@@@        ",
"   +$$$$$$$$$$$$$$$$++++$$$$$$$$$$$$$$$$$$$$+       @@@@@@@@    ",
"   +$$$$$$$$$$$$$$$$+==+$$$$$$$$$$$$$$$$$$$$+       @@@@@@@@    ",
"   +$$$$$$$$$$$%$$$$+==+$$$$$$$$$$$$$$$$$$$$+       @@@@@@@@    ",
"   +$$$$$$$$$$%&%$$$++++$$$$$$$$$$$$$$$$$$$$+       @@@@@@@@    ",
"   +$$$$++++$$%&&%$$$$$$++++++++$$$$++++++++            @@@@    ",
"   +$$$$+  +$$%&;&%$$$$$+@@@   +$$$$+                   @@@@    ",
"   +$$$$+  +$$%&;&%%$$$$+@@@   +$$$$+                   @@@@    ",
"   +$$$$+  +$$%&&%%&%$$$++++   +$$$$++++++++            @@@@    ",
"   +$$$$+  +$$%&%$%&&%$$$$$$+@@+$$$$$$$$$$$$+   @@@@            ",
"   +$$$$+  +$$$%$$%&-&%$$$$$+@@+$$$$$$$$$$$$+   @@@@            ",
"   +$$$$+  +$$$%$$%&-&%$$$$$+@@+$$$$$$$$$$$$+   @@@@            ",
"   +$$$$+  +$$%&%$%&&%$$$$$$+@@+$$$$$$$$$$$$+   @@@@            ",
"   +$$$$+@@+$$%&&%%&%$$$++++@@@+$$$$++++++++@@@@@@@@    ....    ",
"   +$$$$+@@+$$%&*&%%$$$$+   @@@+$$$$+       @@@@@@@@    ....    ",
"   +$$$$+@@+$$%&*&%$$$$$+   @@@+$$$$+       @@@@@@@@    ....    ",
"   +$$$$++++$$%&&%$$$$$$++++++++$$$$++++    @@@@@@@@    ....    ",
"   +$$$$$$$$$$%&%$$$++++$$$$$$$$$$$$$$$$+   @@@@    ....####....",
"   +$$$$$$$$$$$%$$$$+  +$$$$$$$$$$$$$$$$+   @@@@    ....####....",
"   +$$$$$$$$$$$$$$$$+  +$$$$$$$$$$$$$$$$+   @@@@    ....####....",
"   +$$$$$$$$$$$$$$$$+  +$$$$$$$$$$$$$$$$+   @@@@    ....####....",
"    ++++++++++++++++    ++++++++++++++++                ....,,,,",
"                                                        ....,,,,",
"                                                        ....,,,,",
"                                                        ....,,,,"};
