/* XPM */
static char * 3_xpm[] = {
"64 64 3 1",
" 	c None",
".	c #CFC6B8",
"+	c #553F73",
"            ....++++........++++++++++++++++++++++++++++++++++++",
"            ....++++........++++++++++++++++++++++++++++++++++++",
"            ....++++........++++++++++++++++++++++++++++++++++++",
"            ....++++........++++++++++++++++++++++++++++++++++++",
"    ............++++....++++....++++++++++++++++++++++++++++++++",
"    ............++++....++++....++++++++++++++++++++++++++++++++",
"    ............++++....++++....++++++++++++++++++++++++++++++++",
"    ............++++....++++....++++++++++++++++++++++++++++++++",
"    ............++++........++++++++++++++++++++++++++++++++++++",
"    ............++++........++++++++++++++++++++++++++++++++++++",
"    ............++++........++++++++++++++++++++++++++++++++++++",
"    ............++++........++++++++++++++++++++++++++++++++++++",
"            ....++++....++++....++++++++++++++++++++++++++++++++",
"            ....++++....++++....++++++++++++++++++++++++++++++++",
"            ....++++....++++....++++++++++++++++++++++++++++++++",
"            ....++++....++++....++++++++++++++++++++++++++++++++",
"    ............++++........++++++++++++++++++++++++++++++++++++",
"    ............++++........++++++++++++++++++++++++++++++++++++",
"    ............++++........++++++++++++++++++++++++++++++++++++",
"    ............++++........++++++++++++++++++++++++++++++++++++",
"    ............++++....++++....++++++++++++++++++++++++++++++++",
"    ............++++....++++....++++++++++++++++++++++++++++++++",
"    ............++++....++++....++++++++++++++++++++++++++++++++",
"    ............++++....++++....++++++++++++++++++++++++++++++++",
"            ....++++........++++++++++++++++++++++++++++++++++++",
"            ....++++........++++++++++++++++++++++++++++++++++++",
"            ....++++........++++++++++++++++++++++++++++++++++++",
"            ....++++........++++++++++++++++++++++++++++++++++++",
"    ............++++....++++....++++++++++++++++++++++++++++++++",
"    ............++++....++++....++++++++++++++++++++++++++++++++",
"    ............++++....++++....++++++++++++++++++++++++++++++++",
"    ............++++....++++....++++++++++++++++++++++++++++++++",
"    ............++++........++++....++++....++++....++++....++++",
"    ............++++........++++....++++....++++....++++....++++",
"    ............++++........++++....++++....++++....++++....++++",
"    ............++++........++++....++++....++++....++++....++++",
"            ....++++++++++++++++++++++++++++++++++++++++++++++++",
"            ....++++++++++++++++++++++++++++++++++++++++++++++++",
"            ....++++++++++++++++++++++++++++++++++++++++++++++++",
"            ....++++++++++++++++++++++++++++++++++++++++++++++++",
"    ............++++........++++++++........++++++++........++++",
"    ............++++........++++++++........++++++++........++++",
"    ............++++........++++++++........++++++++........++++",
"    ............++++........++++++++........++++++++........++++",
"    ............................................................",
"    ............................................................",
"    ............................................................",
"    ............................................................",
"                                                                ",
"                                                                ",
"                                                                ",
"                                                                ",
"    ............................................................",
"    ............................................................",
"    ............................................................",
"    ............................................................",
"    ............................................................",
"    ............................................................",
"    ............................................................",
"    ............................................................",
"                                                                ",
"                                                                ",
"                                                                ",
"                                                                "};
