/* XPM */
static char * 7_xpm[] = {
"64 64 3 1",
" 	c None",
".	c #553F73",
"+	c #CFC6B8",
"....................................++++++++....++++            ",
"....................................++++++++....++++            ",
"....................................++++++++....++++            ",
"....................................++++++++....++++            ",
"................................++++....++++....++++++++++++    ",
"................................++++....++++....++++++++++++    ",
"................................++++....++++....++++++++++++    ",
"................................++++....++++....++++++++++++    ",
"....................................++++++++....++++++++++++    ",
"....................................++++++++....++++++++++++    ",
"....................................++++++++....++++++++++++    ",
"....................................++++++++....++++++++++++    ",
"................................++++....++++....++++            ",
"................................++++....++++....++++            ",
"................................++++....++++....++++            ",
"................................++++....++++....++++            ",
"....................................++++++++....++++++++++++    ",
"....................................++++++++....++++++++++++    ",
"....................................++++++++....++++++++++++    ",
"....................................++++++++....++++++++++++    ",
"................................++++....++++....++++++++++++    ",
"................................++++....++++....++++++++++++    ",
"................................++++....++++....++++++++++++    ",
"................................++++....++++....++++++++++++    ",
"....................................++++++++....++++            ",
"....................................++++++++....++++            ",
"....................................++++++++....++++            ",
"....................................++++++++....++++            ",
"................................++++....++++....++++++++++++    ",
"................................++++....++++....++++++++++++    ",
"................................++++....++++....++++++++++++    ",
"................................++++....++++....++++++++++++    ",
"....................................++++++++....++++++++++++    ",
"....................................++++++++....++++++++++++    ",
"....................................++++++++....++++++++++++    ",
"....................................++++++++....++++++++++++    ",
"................................++++....++++....++++            ",
"................................++++....++++....++++            ",
"................................++++....++++....++++            ",
"................................++++....++++....++++            ",
"....................................++++++++....++++++++++++    ",
"....................................++++++++....++++++++++++    ",
"....................................++++++++....++++++++++++    ",
"....................................++++++++....++++++++++++    ",
"................................++++....++++....++++++++++++    ",
"................................++++....++++....++++++++++++    ",
"................................++++....++++....++++++++++++    ",
"................................++++....++++....++++++++++++    ",
"....................................++++++++....++++            ",
"....................................++++++++....++++            ",
"....................................++++++++....++++            ",
"....................................++++++++....++++            ",
"................................++++....++++....++++++++++++    ",
"................................++++....++++....++++++++++++    ",
"................................++++....++++....++++++++++++    ",
"................................++++....++++....++++++++++++    ",
"....................................++++++++....++++++++++++    ",
"....................................++++++++....++++++++++++    ",
"....................................++++++++....++++++++++++    ",
"....................................++++++++....++++++++++++    ",
"................................++++....++++....++++            ",
"................................++++....++++....++++            ",
"................................++++....++++....++++            ",
"................................++++....++++....++++            "};
