/* XPM */
static char * 12_xpm[] = {
"64 64 7 1",
" 	c #553F73",
".	c #562F33",
"+	c #757575",
"@	c #000000",
"#	c #E6482E",
"$	c #F4B41B",
"%	c #FFFFFF",
"                                                                ",
"                                                                ",
"                                                                ",
"                                                                ",
"    ....                    ....                    ++++        ",
"    ....                    ....                    ++++        ",
"    ....                    ....                    ++++        ",
"    ....        @@@@        ....            @@@@    ++++        ",
"               @####@+++            .......@####@               ",
"               @####@+++            .......@####@               ",
"               @####@+++            .......@####@               ",
"               @####@+++            .......@####@               ",
"        ++++   @####@+++            .......@####@       ....    ",
"        ++++   @####@+++            .......@####@       ....    ",
"        ++++   @####@+++            .......@####@       ....    ",
"        ++++@@@@####@+++            .......@####@@@@    ....    ",
"           @########@               .......@########@           ",
"           @########@               .......@########@           ",
"           @########@               .......@########@           ",
"           @########@               .......@########@           ",
"           @########@   ........           @########@           ",
"           @########@   ........           @########@           ",
"           @########@   ........           @########@           ",
"           @########@   @@@@@@@@@@@@@@@@   @########@           ",
"    ........@@@@####@  @################@..@####@@@@........    ",
"    ........   @####@  @################@..@####@   ........    ",
"    ........   @####@  @################@..@####@   ........    ",
"    ........@@@@####@@@@################@@@@####@@@@........    ",
"    .......@####@@@@########################@@@@####@.......    ",
"    .......@####@  @########################@  @####@.......    ",
"    .......@####@  @########################@  @####@.......    ",
"    .......@####@@@@########################@@@@####@.......    ",
"            @@@@############@@@@########@@@@####@@@@            ",
"               @################@@####@@########@               ",
"               @##################@##@##########@               ",
"        @@@@   @################################@   @@@@        ",
"       @####@  @############$$$$########$$$$####@++@####@       ",
"       @####@  @############$$$$########$$$$####@++@####@       ",
"       @####@  @############$@@$########$@@$####@++@####@       ",
"       @####@  @############$@@$########$@@$####@++@####@       ",
"    +++@####@  @############$@@$########$@@$####@  @####@       ",
"    +++@####@  @############$@@$########$@@$####@  @####@       ",
"    +++@####@  @############$$$$########$$$$####@  @####@       ",
"    +++@####@  @############$$$$########$$$$####@  @####@       ",
"       @####@  @################################@  @####@...    ",
"       @####@  @################%%@%%@%%########@  @####@...    ",
"       @####@  @################%%@%%@%%########@  @####@...    ",
"       @####@  @################%%@%%@%%########@  @####@...    ",
"        @@@@...@############################@@@@++++@@@@        ",
"        .......@############################@+++++++            ",
"        .......@############################@+++++++            ",
"        .......@############################@+++@@@@            ",
"        .......@########@@@@@@@@@@@@@@@@@@@@+++@####@           ",
"        .......@########@       ....        +++@####@           ",
"        .......@########@       ....        +++@####@           ",
"        ....@@@@########@       ....        @@@@####@           ",
"        ...@########@@@@                   @########@           ",
"        ...@########@                      @########@           ",
"        ...@########@                      @########@           ",
"        ...@########@                      @########@           ",
"            @@@@@@@@                        @@@@@@@@            ",
"                                                                ",
"                                                                ",
"                                                                "};
