/* XPM */
static char * 14_xpm[] = {
"64 64 8 1",
" 	c #553F73",
".	c #38D973",
"+	c #000000",
"@	c #E6482E",
"#	c #6188D4",
"$	c #CED461",
"%	c #F4B41B",
"&	c #FFFFFF",
"                                                                ",
"                                                                ",
"                                                                ",
"                                                                ",
"                                        ....                    ",
"                                        ....                    ",
"                                        ....                    ",
"                ++++                    ....++++                ",
"               +@@@@+                   ...+@@@@+       ....    ",
"               +@@@@+                   ...+@@@@+       ....    ",
"               +@@@@+                   ...+@@@@+       ....    ",
"               +@@@@+                   ...+@@@@+       ....    ",
"        ....   +@@@@+   ....               +@@@@+   ........    ",
"        ....   +@@@@+   ....               +@@@@+   ........    ",
"        ....   +@@@@+   ....               +@@@@+   ........    ",
"        ....++++@@@@+   ....               +@@@@++++........    ",
"           +@@@@@@@@+                      +@@@@@@@@+...        ",
"           +@@@@@@@@+                 #### +@@@@@@@@+...        ",
"           +@@@@@@@@+                 #### +@@@@@@@@+...        ",
"        ###+@@@@@@@@+                 #### +@@@@@@@@+...        ",
"        ###+@@@@@@@@+                 #### +@@@@@@@@+           ",
"        ###+@@@@@@@@+             ####$$$$#+@@@@@@@@+           ",
"        ###+@@@@@@@@+             ####$$$$#+@@@@@@@@+           ",
"    ####$$$+@@@@@@@@+   ++++++++++++++++$$#+@@@@@@@@+           ",
"    ####$$$$++++@@@@+  +@@@@@@@@@@@@@@@@+$#+@@@@++++            ",
"    ####$$$$###+@@@@+  +@@@@@@@@@@@@@@@@+# +@@@@+               ",
"    ####$$$$###+@@@@+  +@@@@@@@@@@@@@@@@+# +@@@@+               ",
"        ####++++@@@@++++@@@@@@@@@@@@@@@@++++@@@@++++            ",
"        ###+@@@@++++@@@@@@@@@@@@@@@@@@@@@@@@++++@@@@+           ",
"        ###+@@@@+  +@@@@@@@@@@@@@@@@@@@@@@@@+  +@@@@+           ",
"        ###+@@@@+  +@@@@@@@@@@@@@@@@@@@@@@@@+  +@@@@+           ",
"           +@@@@++++@@@@@@@@@@@@@@@@@@@@@@@@++++@@@@+           ",
"            ++++@@@@@@@@@@@@++++@@@@@@@@++++@@@@++++            ",
"               +@@@@@@@@@@@@@@@@++@@@@++@@@@@@@@+...            ",
"               +@@@@@@@@@@@@@@@@@@+@@+@@@@@@@@@@+...            ",
"        ++++   +@@@@@@@@@@@@@@@@@@@@@@@@@@@@@@@@+...++++        ",
"    ...+@@@@+  +@@@@@@@@@@@@%%%%@@@@@@@@%%%%@@@@+..+@@@@+...    ",
"    ...+@@@@+  +@@@@@@@@@@@@%%%%@@@@@@@@%%%%@@@@+..+@@@@+...    ",
"    ...+@@@@+  +@@@@@@@@@@@@%++%@@@@@@@@%++%@@@@+..+@@@@+...    ",
"    ...+@@@@+  +@@@@@@@@@@@@%++%@@@@@@@@%++%@@@@+..+@@@@+...    ",
"    ...+@@@@+  +@@@@@@@@@@@@%++%@@@@@@@@%++%@@@@+  +@@@@+       ",
"    ...+@@@@+  +@@@@@@@@@@@@%++%@@@@@@@@%++%@@@@+  +@@@@+       ",
"    ...+@@@@+  +@@@@@@@@@@@@%%%%@@@@@@@@%%%%@@@@+  +@@@@+       ",
"    ...+@@@@+  +@@@@@@@@@@@@%%%%@@@@@@@@%%%%@@@@+  +@@@@+       ",
"       +@@@@+  +@@@@@@@@@@@@@@@@@@@@@@@@@@@@@@@@+  +@@@@+       ",
"       +@@@@+  +@@@@@@@@@@@@@@@@&&+&&+&&@@@@@@@@+  +@@@@+       ",
"       +@@@@+  +@@@@@@@@@@@@@@@@&&+&&+&&@@@@@@@@+  +@@@@+       ",
"       +@@@@+  +@@@@@@@@@@@@@@@@&&+&&+&&@@@@@@@@+  +@@@@+       ",
"        ++++   +@@@@@@@@@@@@@@@@@@@@@@@@@@@@++++$###++++        ",
"               +@@@@@@@@@@@@@@@@@@@@@@@@@@@@+$$$$####           ",
"               +@@@@@@@@@@@@@@@@@@@@@@@@@@@@+$$$$####           ",
"               +@@@@@@@@@@@@@@@@@@@@@@@@@@@@+$$$++++#           ",
"               +@@@@@@@@++++++++++++++++++++ ##+@@@@+           ",
"               +@@@@@@@@+   ....             ##+@@@@+           ",
"               +@@@@@@@@+   ....             ##+@@@@+           ",
"            ++++@@@@@@@@+   ....            ++++@@@@+           ",
"           +@@@@@@@@++++    ....    ....   +@@@@@@@@+           ",
"           +@@@@@@@@+...    ....    ....   +@@@@@@@@+           ",
"           +@@@@@@@@+...    ....    ....   +@@@@@@@@+           ",
"           +@@@@@@@@+...    ....    ....   +@@@@@@@@+           ",
"            ++++++++                        ++++++++            ",
"                                                                ",
"                                                                ",
"                                                                "};
