/* XPM */
static char * 15_xpm[] = {
"64 64 9 1",
" 	c #553F73",
".	c #000000",
"+	c #EC0202",
"@	c #E6482E",
"#	c #38D973",
"$	c #CED461",
"%	c #B661D4",
"&	c #F4B41B",
"*	c #FFFFFF",
"                                                                ",
"                                                                ",
"                                                                ",
"                                                                ",
"                                                                ",
"                                                                ",
"                                                                ",
"                ....                        ....                ",
"            +++.@@@@.       ####           .@@@@.   ####        ",
"            +++.@@@@.       ####           .@@@@.   ####        ",
"            +++.@@@@.       ####           .@@@@.   ####        ",
"            +++.@@@@.       ####           .@@@@.   ####        ",
"        ++++$$$.@@@@.   ########           .@@@@.               ",
"        ++++$$$.@@@@.   ########           .@@@@.               ",
"        ++++$$$.@@@@.   ########           .@@@@.               ",
"        ++++....@@@@.   ########           .@@@@....            ",
"           .@@@@@@@@.   ####            %%%.@@@@@@@@.           ",
"           .@@@@@@@@.   ####            %%%.@@@@@@@@.           ",
"           .@@@@@@@@.   ####            %%%.@@@@@@@@.           ",
"           .@@@@@@@@.   ####            %%%.@@@@@@@@.           ",
"    ####   .@@@@@@@@.                      .@@@@@@@@.           ",
"    ####   .@@@@@@@@.                      .@@@@@@@@.           ",
"    ####   .@@@@@@@@.                      .@@@@@@@@.           ",
"    ####   .@@@@@@@@.   ................   .@@@@@@@@.           ",
"            ....@@@@.##.@@@@@@@@@@@@@@@@.  .@@@@....    ####    ",
"               .@@@@.##.@@@@@@@@@@@@@@@@.  .@@@@.       ####    ",
"               .@@@@.##.@@@@@@@@@@@@@@@@.  .@@@@.       ####    ",
"            ....@@@@....@@@@@@@@@@@@@@@@....@@@@....    ####    ",
"        ###.@@@@....@@@@@@@@@@@@@@@@@@@@@@@@....@@@@.#######    ",
"        ###.@@@@.  .@@@@@@@@@@@@@@@@@@@@@@@@.  .@@@@.#######    ",
"        ###.@@@@.  .@@@@@@@@@@@@@@@@@@@@@@@@.  .@@@@.#######    ",
"        ###.@@@@....@@@@@@@@@@@@@@@@@@@@@@@@....@@@@.#######    ",
"        ####....@@@@@@@@@@@@....@@@@@@@@....@@@@....####        ",
"        #######.@@@@@@@@@@@@@@@@..@@@@..@@@@@@@@.   ####        ",
"        #######.@@@@@@@@@@@@@@@@@@.@@.@@@@@@@@@@.   ####        ",
"        ....###.@@@@@@@@@@@@@@@@@@@@@@@@@@@@@@@@.   ....        ",
"       .@@@@.##.@@@@@@@@@@@@&&&&@@@@@@@@&&&&@@@@.  .@@@@.       ",
"       .@@@@.##.@@@@@@@@@@@@&&&&@@@@@@@@&&&&@@@@.  .@@@@.       ",
"       .@@@@.##.@@@@@@@@@@@@&..&@@@@@@@@&..&@@@@.  .@@@@.       ",
"       .@@@@.##.@@@@@@@@@@@@&..&@@@@@@@@&..&@@@@.  .@@@@.       ",
"       .@@@@.  .@@@@@@@@@@@@&..&@@@@@@@@&..&@@@@.  .@@@@.       ",
"       .@@@@.  .@@@@@@@@@@@@&..&@@@@@@@@&..&@@@@.  .@@@@.       ",
"       .@@@@.  .@@@@@@@@@@@@&&&&@@@@@@@@&&&&@@@@.  .@@@@.       ",
"       .@@@@.  .@@@@@@@@@@@@&&&&@@@@@@@@&&&&@@@@.  .@@@@.       ",
"       .@@@@.%%.@@@@@@@@@@@@@@@@@@@@@@@@@@@@@@@@.++.@@@@.       ",
"       .@@@@.%%.@@@@@@@@@@@@@@@@**.**.**@@@@@@@@.++.@@@@.       ",
"       .@@@@.%%.@@@@@@@@@@@@@@@@**.**.**@@@@@@@@.++.@@@@.       ",
"       .@@@@.%%.@@@@@@@@@@@@@@@@**.**.**@@@@@@@@.++.@@@@.       ",
"        ....$$$.@@@@@@@@@@@@@@@@@@@@@@@@@@@@....$$$$....        ",
"        %%%%$$$.@@@@@@@@@@@@@@@@@@@@@@@@@@@@.+++$$$$++++        ",
"        %%%%$$$.@@@@@@@@@@@@@@@@@@@@@@@@@@@@.+++$$$$++++        ",
"        %%%%$$$.@@@@@@@@@@@@@@@@@@@@@@@@@@@@.+++....++++        ",
"            %%%.@@@@@@@@....................   .@@@@.           ",
"            %%%.@@@@@@@@.           ####       .@@@@.           ",
"            %%%.@@@@@@@@.           ####       .@@@@.           ",
"            ....@@@@@@@@.           ####    ....@@@@.           ",
"           .@@@@@@@@....                   .@@@@@@@@.           ",
"           .@@@@@@@@.                      .@@@@@@@@.           ",
"           .@@@@@@@@.                      .@@@@@@@@.           ",
"           .@@@@@@@@.                      .@@@@@@@@.           ",
"            ........                        ........            ",
"                                                                ",
"                                                                ",
"                                                                "};
