/* XPM */
static char * 3_xpm[] = {
"64 64 7 1",
" 	c #553F73",
".	c #562F33",
"+	c #000000",
"@	c #E6482E",
"#	c #757575",
"$	c #F4B41B",
"%	c #CFC6B8",
"                                                                ",
"                                                                ",
"                                                                ",
"                                                                ",
"                                ....                            ",
"                                ....                            ",
"                                ....                            ",
"                ++++            ....        ++++                ",
"               +@@@@+                      +@@@@+               ",
"               +@@@@+                      +@@@@+               ",
"               +@@@@+                      +@@@@+               ",
"               +@@@@+                      +@@@@+               ",
"               +@@@@+   ############    ...+@@@@+               ",
"               +@@@@+   ############    ...+@@@@+               ",
"               +@@@@+   ############    ...+@@@@+               ",
"            ++++@@@@+   ############    ...+@@@@++++            ",
"           +@@@@@@@@+   ############    ...+@@@@@@@@+###        ",
"           +@@@@@@@@+   ############    ...+@@@@@@@@+###        ",
"           +@@@@@@@@+   ############    ...+@@@@@@@@+###        ",
"           +@@@@@@@@+   ############    ...+@@@@@@@@+###        ",
"           +@@@@@@@@+   ############       +@@@@@@@@+           ",
"           +@@@@@@@@+   ############       +@@@@@@@@+           ",
"           +@@@@@@@@+   ############       +@@@@@@@@+           ",
"           +@@@@@@@@+   ++++++++++++++++   +@@@@@@@@+           ",
"            ++++@@@@+  +@@@@@@@@@@@@@@@@+..+@@@@++++            ",
"               +@@@@+  +@@@@@@@@@@@@@@@@+..+@@@@+...            ",
"               +@@@@+  +@@@@@@@@@@@@@@@@+..+@@@@+...            ",
"            ++++@@@@++++@@@@@@@@@@@@@@@@++++@@@@++++            ",
"    ####   +@@@@++++@@@@@@@@@@@@@@@@@@@@@@@@++++@@@@+           ",
"    ####   +@@@@+..+@@@@@@@@@@@@@@@@@@@@@@@@+..+@@@@+           ",
"    ####   +@@@@+..+@@@@@@@@@@@@@@@@@@@@@@@@+..+@@@@+           ",
"    ####   +@@@@++++@@@@@@@@@@@@@@@@@@@@@@@@++++@@@@+           ",
"            ++++@@@@@@@@@@@@++++@@@@@@@@++++@@@@++++    ####    ",
"            ...+@@@@@@@@@@@@@@@@++@@@@++@@@@@@@@+...    ####    ",
"            ...+@@@@@@@@@@@@@@@@@@+@@+@@@@@@@@@@+...    ####    ",
"        ++++...+@@@@@@@@@@@@@@@@@@@@@@@@@@@@@@@@+...++++####    ",
"       +@@@@+..+@@@@@@@@@@@@$$$$@@@@@@@@$$$$@@@@+  +@@@@+       ",
"       +@@@@+..+@@@@@@@@@@@@$$$$@@@@@@@@$$$$@@@@+  +@@@@+       ",
"       +@@@@+..+@@@@@@@@@@@@$++$@@@@@@@@$++$@@@@+  +@@@@+       ",
"       +@@@@+..+@@@@@@@@@@@@$++$@@@@@@@@$++$@@@@+  +@@@@+       ",
"       +@@@@+  +@@@@@@@@@@@@$++$@@@@@@@@$++$@@@@+##+@@@@+       ",
"       +@@@@+  +@@@@@@@@@@@@$++$@@@@@@@@$++$@@@@+##+@@@@+       ",
"       +@@@@+  +@@@@@@@@@@@@$$$$@@@@@@@@$$$$@@@@+##+@@@@+       ",
"       +@@@@+  +@@@@@@@@@@@@$$$$@@@@@@@@$$$$@@@@+##+@@@@+       ",
"       +@@@@+  +@@@@@@@@@@@@@@@@@@@@@@@@@@@@@@@@+##+@@@@+       ",
"       +@@@@+  +@@@@@@@@@@@@@@@@%%+%%+%%@@@@@@@@+##+@@@@+       ",
"       +@@@@+  +@@@@@@@@@@@@@@@@%%+%%+%%@@@@@@@@+##+@@@@+       ",
"       +@@@@+  +@@@@@@@@@@@@@@@@%%+%%+%%@@@@@@@@+##+@@@@+       ",
"        ++++   +@@@@@@@@@@@@@@@@@@@@@@@@@@@@@@@@+   ++++        ",
"               +@@@@@@@@@@@@@@@@@@@@@@@@@@@@@@@@+               ",
"               +@@@@@@@@@@@@@@@@@@@@@@@@@@@@@@@@+               ",
"               +@@@@@@@@@@@@@@@@@@@@@@@@@@@@@@@@+               ",
"                ++++@@@@@@@@++++++++++++++++++++                ",
"                   +@@@@@@@@+               ....                ",
"                   +@@@@@@@@+               ....                ",
"                   +@@@@@@@@++++    ++++++++....                ",
"                    ++++@@@@@@@@+  +@@@@@@@@+                   ",
"                       +@@@@@@@@+  +@@@@@@@@+                   ",
"                       +@@@@@@@@+  +@@@@@@@@+                   ",
"                       +@@@@@@@@+  +@@@@@@@@+                   ",
"                        ++++++++    ++++++++                    ",
"                                                                ",
"                                                                ",
"                                                                "};
