/* XPM */
static char * 6_xpm[] = {
"64 64 11 1",
" 	c #553F73",
".	c #B661D4",
"+	c #38D973",
"@	c #CED461",
"#	c #000000",
"$	c #E6482E",
"%	c #EC0202",
"&	c #6188D4",
"*	c #F4B41B",
"=	c #CFC6B8",
"-	c #472D3C",
"                ....                                            ",
"                ....                                            ",
"                ....                                            ",
"                ....                                            ",
"    ++++    ....@@@@....            ++++                        ",
"    ++++    ....@@@@....            ++++                        ",
"    ++++    ....@@@@....            ++++                        ",
"    ++++    ....####....            ++++    ####                ",
"    ++++++++   #$$$$#           ++++++++   #$$$$#       ++++    ",
"    ++++++++   #$$$$#           ++++++++   #$$$$#       ++++    ",
"    ++++++++   #$$$$#           ++++++++   #$$$$#       ++++    ",
"    ++++++++   #$$$$#           ++++++++%%%#$$$$#%%%    ++++    ",
"        ++++   #$$$$#           ++++    %%%#$$$$#%%%++++++++    ",
"        ++++   #$$$$#           ++++    %%%#$$$$#%%%++++++++    ",
"        ++++   #$$$$#           ++++    %%%#$$$$#%%%++++++++    ",
"        ++++####$$$$#           ++++       #$$$$####++++++++    ",
"           #$$$$$$$$#                      #$$$$$$$$#+++        ",
"           #$$$$$$$$#                      #$$$$$$$$#+++        ",
"           #$$$$$$$$#                      #$$$$$$$$#+++        ",
"           #$$$$$$$$#                      #$$$$$$$$#+++        ",
"           #$$$$$$$$#+++                   #$$$$$$$$#           ",
"           #$$$$$$$$#+++         &&&&      #$$$$$$$$#           ",
"           #$$$$$$$$#+++         &&&&      #$$$$$$$$#           ",
"           #$$$$$$$$#+++################   #$$$$$$$$#           ",
"            ####$$$$#++#$$$$$$$$$$$$$$$$#  #$$$$####            ",
"               #$$$$#++#$$$$$$$$$$$$$$$$#  #$$$$#+++            ",
"               #$$$$#++#$$$$$$$$$$$$$$$$#  #$$$$#+++            ",
"            ####$$$$####$$$$$$$$$$$$$$$$####$$$$####            ",
"        +++#$$$$####$$$$$$$$$$$$$$$$$$$$$$$$####$$$$#           ",
"        +++#$$$$#  #$$$$$$$$$$$$$$$$$$$$$$$$#  #$$$$#           ",
"        +++#$$$$#  #$$$$$$$$$$$$$$$$$$$$$$$$#  #$$$$#           ",
"        +++#$$$$####$$$$$$$$$$$$$$$$$$$$$$$$####$$$$#           ",
"    ++++++++####$$$$$$$$$$$$####$$$$$$$$####$$$$####            ",
"    ++++++++   #$$$$$$$$$$$$$$$$##$$$$##$$$$$$$$#               ",
"    ++++++++   #$$$$$$$$$$$$$$$$$$#$$#$$$$$$$$$$#               ",
"    ++++####   #$$$$$$$$$$$$$$$$$$$$$$$$$$$$$$$$#   ####        ",
"    +++#$$$$#  #$$$$$$$$$$$$****$$$$$$$$****$$$$#  #$$$$#       ",
"    +++#$$$$#  #$$$$$$$$$$$$****$$$$$$$$****$$$$#  #$$$$#       ",
"    +++#$$$$#  #$$$$$$$$$$$$*##*$$$$$$$$*##*$$$$#  #$$$$#       ",
"    +++#$$$$#  #$$$$$$$$$$$$*##*$$$$$$$$*##*$$$$#  #$$$$#       ",
"       #$$$$#%%#$$$$$$$$$$$$*##*$$$$$$$$*##*$$$$#  #$$$$#+++    ",
"       #$$$$#%%#$$$$$$$$$$$$*##*$$$$$$$$*##*$$$$#  #$$$$#+++    ",
"       #$$$$#%%#$$$$$$$$$$$$****$$$$$$$$****$$$$#  #$$$$#+++    ",
"       #$$$$#%%#$$$$$$$$$$$$****$$$$$$$$****$$$$#  #$$$$#+++    ",
"       #$$$$#  #$$$$$$$$$$$$$$$$$$$$$$$$$$$$$$$$#  #$$$$#+++    ",
"       #$$$$#  #$$$$$$$$$$$$$$$$==#==#==$$$$$$$$#  #$$$$#+++    ",
"       #$$$$#  #$$$$$$$$$$$$$$$$==#==#==$$$$$$$$#  #$$$$#+++    ",
"       #$$$$#  #$$$$$$$$$$$$$$$$==#==#==$$$$$$$$#  #$$$$#+++    ",
"    ++++####   #$$$$$$$$$$$$$$$$$$$$$$$$$$$$$$$$#+++####        ",
"    ++++       #$$$$$$$$$$$$$$$$$$$$$$$$$$$$$$$$#+++            ",
"    ++++       #$$$$$$$$$$$$$$$$$$$$$$$$$$$$$$$$#+++            ",
"    ++++       #$$$$$$$$$$$$$$$$$$$$$$$$$$$$$$$$#+++            ",
"    ++++++++    ####$$$$$$$$####################++++    ....    ",
"    ++++++++       #$$$$$$$$#+++            ++++++++    ....    ",
"    ++++++++       #$$$$$$$$#+++            ++++++++    ....    ",
"    ++++++++       #$$$$$$$$####    ########++++++++    ....    ",
"        ++++        ####$$$$$$$$#  #$$$$$$$$#+++    ....@@@@....",
"        ++++           #$$$$$$$$#  #$$$$$$$$#+++    ....@@@@....",
"        ++++           #$$$$$$$$#  #$$$$$$$$#+++    ....@@@@....",
"        ++++           #$$$$$$$$#  #$$$$$$$$#+++    ....@@@@....",
"                        ########    ########            ....----",
"                                                        ....----",
"                                                        ....----",
"                                                        ....----"};
