/* XPM */
static char * 15_xpm[] = {
"64 64 13 1",
" 	c #553F73",
".	c #000000",
"+	c #CFC6B8",
"@	c #92918F",
"#	c #F4DA1B",
"$	c #38D973",
"%	c #1DF41B",
"&	c #EC0202",
"*	c #B661D4",
"=	c #F41B1B",
"-	c #CED461",
";	c #1B64F4",
">	c #6188D4",
"                                                                ",
"                                                                ",
"                                                                ",
"        ................    ................                    ",
"       .++++++++++++++++.  .++++++++++++++++.                   ",
"       .++++++++++++++++.  .++++++++++++++++.                   ",
"       .++++++++++++++++.  .++++@+++++++++++.                   ",
"       .++++++++++++++++....+++@#@++++++++++.                   ",
"        ....++++........++++++@##@++....++++.       $$$$        ",
"           .++++.      .+++++@#%#@++.  .++++.       $$$$        ",
"           .++++.      .++++@@#%#@++.  .++++.       $$$$        ",
"    ........++++.   ....+++@#@@##@++.  .++++.       $$$$        ",
"   .++++++++++++.&&.++++++@##@+@#@++.  .++++.***                ",
"   .++++++++++++.&&.+++++@#=#@++@+++.  .++++.***                ",
"   .++++++++++++.&&.+++++@#=#@++@+++.  .++++.***                ",
"   .++++++++++++.&&.++++++@##@+@#@++.  .++++.***                ",
"    ........++++.   ....+++@#@@##@++.  .++++.---****            ",
"           .++++.      .++++@@#;#@++.  .++++.---****            ",
"           .++++.      .+++++@#;#@++.  .++++.---****            ",
"    ........++++........++++++@##@++....++++.---****            ",
"   .++++++++++++++++++++....+++@#@++++++++++.***                ",
"   .++++++++++++++++++++.  .++++@+++++++++++.***                ",
"   .++++++++++++++++++++.  .++++++++++++++++.***                ",
"   .++++++++++++++++++++....++++++++++++++++.***                ",
"    ................++++++++................            $$$$    ",
"                   .++++++++.       $$$$                $$$$    ",
"                   .++++++++.       $$$$                $$$$    ",
"                ....++++++++.       $$$$                $$$$    ",
"        $$$$   .++++++++....                        $$$$$$$$    ",
"        $$$$   .++++++++.                           $$$$$$$$    ",
"        $$$$   .++++++++.                           $$$$$$$$    ",
"        $$$$   .++++++++.       ........            $$$$$$$$    ",
"        $$$$$$$$........    >>>.++++++++.           $$$$        ",
"        $$$$$$$$            >>>.++++++++.           $$$$        ",
"        $$$$$$$$            >>>.++++++++.           $$$$        ",
"        $$$$$$$$            >>>.++++++++....        $$$$        ",
"            $$$$        >>>>----....++++++++.$$$                ",
"            $$$$        >>>>---->>>.++++++++.$$$                ",
"            $$$$        >>>>---->>>.++++++++.$$$                ",
"            $$$$    ................++++++++................    ",
"                   .++++++++++++++++++++....++++++++++++++++.   ",
"                   .++++++++++++++++++++.  .++++++++++++++++.   ",
"                   .++++++++++++++++++++.  .++++@+++++++++++.   ",
"                   .++++++++++++++++++++....+++@#@++++++++++.   ",
"            ****    ........++++........++++++@##@++....++++.   ",
"            ****           .++++.      .+++++@#;#@++.  .++++.   ",
"            ****           .++++.      .++++@@#;#@++.  .++++.   ",
"            ****    ........++++.   ....+++@#@@##@++.  .++++.   ",
"        ****----***.++++++++++++.  .++++++@##@+@#@++.&&.++++.   ",
"        ****----***.++++++++++++.  .+++++@#=#@++@+++.&&.++++.   ",
"        ****----***.++++++++++++.  .+++++@#=#@++@+++.&&.++++.   ",
"        ****----***.++++++++++++.  .++++++@##@+@#@++.&&.++++.   ",
"            ****    ........++++.   ....+++@#@@##@++.  .++++.   ",
"            ****           .++++.   $$$.++++@@#%#@++.  .++++.   ",
"            ****           .++++.   $$$.+++++@#%#@++.  .++++.   ",
"            ****        ....++++........++++++@##@++....++++.   ",
"                       .++++++++++++++++....+++@#@++++++++++.   ",
"                       .++++++++++++++++.  .++++@+++++++++++.   ",
"                       .++++++++++++++++.  .++++++++++++++++.   ",
"                       .++++++++++++++++.  .++++++++++++++++.   ",
"                        ................    ................    ",
"                                                                ",
"                                                                ",
"                                                                "};
