/* XPM */
static char * 5_xpm[] = {
"64 64 13 1",
" 	c #553F73",
".	c #000000",
"+	c #CFC6B8",
"@	c #92918F",
"#	c #F4DA1B",
"$	c #EC0202",
"%	c #1DF41B",
"&	c #38D973",
"*	c #CED461",
"=	c #F41B1B",
"-	c #1B64F4",
";	c #6188D4",
">	c #B661D4",
"                                                                ",
"                                                                ",
"                                                                ",
"                        ................    ................    ",
"                       .++++++++++++++++.  .++++++++++++++++.   ",
"                       .++++++++++++++++.  .++++++++++++++++.   ",
"                       .++++++++++++++++.  .++++@+++++++++++.   ",
"                       .++++++++++++++++....+++@#@++++++++++.   ",
"            $$$$        ....++++........++++++@##@++....++++.   ",
"            $$$$           .++++.      .+++++@#%#@++.&&.++++.   ",
"            $$$$           .++++.      .++++@@#%#@++.&&.++++.   ",
"            $$$$    ........++++.   ....+++@#@@##@++.&&.++++.   ",
"        $$$$****$$$.++++++++++++.  .++++++@##@+@#@++.  .++++.   ",
"        $$$$****$$$.++++++++++++.  .+++++@#=#@++@+++.  .++++.   ",
"        $$$$****$$$.++++++++++++.  .+++++@#=#@++@+++.  .++++.   ",
"        $$$$****$$$.++++++++++++.  .++++++@##@+@#@++.  .++++.   ",
"            $$$$    ........++++.   ....+++@#@@##@++.  .++++.   ",
"            $$$$        &&&.++++.      .++++@@#-#@++.  .++++.   ",
"            $$$$        &&&.++++.      .+++++@#-#@++.  .++++.   ",
"            $$$$    ........++++........++++++@##@++....++++.   ",
"    &&&&           .++++++++++++++++++++....+++@#@++++++++++.   ",
"    &&&&           .++++++++++++++++++++.  .++++@+++++++++++.   ",
"    &&&&           .++++++++++++++++++++.  .++++++++++++++++.   ",
"    &&&&           .++++++++++++++++++++....++++++++++++++++.   ",
"                    ................++++++++................    ",
"                    &&&&           .++++++++.           &&&&    ",
"                    &&&&           .++++++++.           &&&&    ",
"                    &&&&        ....++++++++.           &&&&    ",
"        &&&&                   .++++++++....        &&&&&&&&    ",
"        &&&&                   .++++++++.           &&&&&&&&    ",
"        &&&&                   .++++++++.           &&&&&&&&    ",
"        &&&&    ........       .++++++++.           &&&&&&&&    ",
"        &&&&&&&.++++++++.   ;;;;........            &&&&        ",
"        &&&&&&&.++++++++.   ;;;;                    &&&&        ",
"        &&&&&&&.++++++++.   ;;;;                    &&&&        ",
"        &&&&&&&.++++++++....;;;;                    &&&&        ",
"            &&&&....++++++++.***;;;;        &&&&                ",
"            &&&&   .++++++++.***;;;;        &&&&                ",
"            &&&&   .++++++++.***;;;;        &&&&                ",
"    ................++++++++................&&&&                ",
"   .++++++++++++++++++++....++++++++++++++++.                   ",
"   .++++++++++++++++++++.  .++++++++++++++++.                   ",
"   .++++++++++++++++++++.  .++++@+++++++++++.                   ",
"   .++++++++++++++++++++....+++@#@++++++++++.                   ",
"    ........++++........++++++@##@++....++++.   $$$$            ",
"           .++++.      .+++++@#-#@++.  .++++.   $$$$            ",
"           .++++.      .++++@@#-#@++.  .++++.   $$$$            ",
"    ........++++.   ....+++@#@@##@++.  .++++.   $$$$            ",
"   .++++++++++++.>>.++++++@##@+@#@++.  .++++.$$$****$$$$        ",
"   .++++++++++++.>>.+++++@#=#@++@+++.  .++++.$$$****$$$$        ",
"   .++++++++++++.>>.+++++@#=#@++@+++.  .++++.$$$****$$$$        ",
"   .++++++++++++.>>.++++++@##@+@#@++.  .++++.$$$****$$$$        ",
"    ........++++.   ....+++@#@@##@++.&&.++++.   $$$$            ",
"           .++++.      .++++@@#%#@++.&&.++++.   $$$$            ",
"           .++++.      .+++++@#%#@++.&&.++++.   $$$$            ",
"        ....++++........++++++@##@++....++++.   $$$$            ",
"       .++++++++++++++++....+++@#@++++++++++.                   ",
"       .++++++++++++++++.  .++++@+++++++++++.                   ",
"       .++++++++++++++++.  .++++++++++++++++.                   ",
"       .++++++++++++++++.  .++++++++++++++++.                   ",
"        ................    ................                    ",
"                                                                ",
"                                                                ",
"                                                                "};
