/* XPM */
static char * 1_xpm[] = {
"64 64 10 1",
" 	c #553F73",
".	c #757575",
"+	c #562F33",
"@	c #F4B41B",
"#	c #000000",
"$	c #191919",
"%	c #100506",
"&	c #06030B",
"*	c #F7B61C",
"=	c #F3B31B",
"                                                                ",
"                                                                ",
"                                                                ",
"                                                                ",
"                            ....                                ",
"                            ....                                ",
"                            ....                                ",
"                            ....                                ",
"                    ++++    ....    ++++                        ",
"              @    @++++@   ....    ++++                        ",
"         @     @   @+++@    .@..    ++++                        ",
"          @@        ++++   @@...    ++++                        ",
"        ....@  #########  @                             ++++    ",
"        ....  #@@@@@@@@@#       @ @   @    @            ++++    ",
"        ....###@@@@@@@@@###   @@   @  @   @     @       ++++    ",
"        @..#@@@#########@@@# @                 @        ++++    ",
"        .@.$@@@#########@@@#      #########   @                 ",
"        ...#@@@#########@@@#     #@@@@@@@@@#                    ",
"        ...####@@@@@@@@@####   ###@@@@@@@@@###    @             ",
"        ...#@@@#########@@@#  #@@@#########@@@#  @              ",
"           #@@@@@@@@@@@@@@@#++%@@@#########@@@# @.......        ",
"           ####@@@@@@@@@####++#@@@#########@@@# ........        ",
"           #@@@#########@@@#++####@@@@@@@@@#### ........        ",
"           #@@@@@@@@@@@@@@@#++#@@@#########@@@# ..@.....        ",
"           ####@@@@@@@@@####++#@@@@@@@@@@@@@@@#..@......        ",
"           #@@@#########@@@#++####@@@@@@@@@####.@.......        ",
"           #@@@@@@@@@@@@@@@#++#@@@#########@@@#.........        ",
"           ####@@@@@@@@@####++#@@@@@@@@@@@@@@@#..@...@..        ",
"           #@@@#########@@@#  ####@@@@@@@@@####..@..@           ",
"           #@@@@@@@@@@@@@@@#  #@@@#########@@@#.....   @        ",
"           ####@@@@@@@@@####  &@@@@@@@@@@@@#########  @         ",
"           #@@@#########@@@#   ###@@@@@@@@#@@@@@@@@@#           ",
"    ....   #@@@@@@@@@@@@@@@#      #########@@@@@@@@@###         ",
"    ....   ####@@@@@@@@@####        +++#@@@#########@@@#        ",
"    ....   #@@@#########@@@#        +++%@@@#########@@@#        ",
"    ....   #@@@@@@@@@@@@@@@#        +++#@@@#########@@@#        ",
"           ####@@@@@@@@@####       @   ####@@@@@@@@@####        ",
"           #@@@#########@@@#       @   #@@@#########@@@#        ",
"           #@@@@@@@@@@@@@@@#   @       #@@@@@@@@@@@@@@@#        ",
"           ####@@@@@@@@@####    @  ########@@@@@@@@@####        ",
"           #@@@#########@@@# @    #@@@##@#@#########@@@#        ",
"           &@@@@@@@@@@@@@@@#  @  #@@@@@*#@#@@@@@@@@@@@@#        ",
"            ###@@@@@@@@@###.    #@@@###@@#@#@@@@@@@@####        ",
"               #########....   #@@@####@@#@#########@@@#        ",
"        ++++        ......@.  #@@@####@@#@@#@@@@@@@@@@@#        ",
"        ++++        .......@ #@@@####@@#@@@#@@@@@@@@####        ",
"        ++++        ........#@@@####@@#@@@##########@@@#        ",
"        ++++        ....@...#@@####@@#@@@#@@@@@@@@@@@@@#        ",
"        ++++++++    .... @@ #@@###@@#@@@###@@@@@@@@@####        ",
"        ++++++++    ....    #@@@@@@#@@@#@@@#########@@@#        ",
"        ++++++++    ....    ##*@@##@@@##@@@@@@@@@@@@@@@#        ",
"        ++++++++    ....    #@###@@@@# ####@@@@@@@@@####        ",
"            ++++             #@@=@@@#  #@@@#########@@@#        ",
"            ++++              #@@@##   &@@@@@@@@@@@@@@@#        ",
"            ++++               ###      ###@@@@@@@@@###+        ",
"            ++++                           #########++++        ",
"                                ....                ++++        ",
"                                ....                ++++        ",
"                                ....                ++++        ",
"                                ....                ++++        ",
"                                                                ",
"                                                                ",
"                                                                ",
"                                                                "};
