/* XPM */
static char * 2_xpm[] = {
"64 64 11 1",
" 	c #553F73",
".	c #562F33",
"+	c #757575",
"@	c #F4B41B",
"#	c #000000",
"$	c #100918",
"%	c #100506",
"&	c #06030B",
"*	c #191919",
"=	c #F7B61C",
"-	c #F3B31B",
"                                                                ",
"                                                                ",
"                                                                ",
"                                                                ",
"    ....                    ....                    ++++        ",
"    ....                    ....                    ++++        ",
"    ....                    ....                    ++++        ",
"    ....                    ....                    ++++        ",
"                ++++++++            ............                ",
"              @ +++@++++@           ............                ",
"         @     @+++@+++@     @      ............                ",
"          @@    ++++++++   @@       ............                ",
"        ++++@  #########  @         ............        ....    ",
"        ++++  #@@@@@@@@@#       @ @ ..@....@....        ....    ",
"        ++++###@@@@@@@@@###   @@   @..@...@.....@       ....    ",
"        @++#@@@#########@@@# @      ...........@        ....    ",
"         @ $@@@#########@@@#      #########...@.                ",
"           #@@@#########@@@#     #@@@@@@@@@#....                ",
"           ####@@@@@@@@@####   ###@@@@@@@@@###..  @             ",
"           #@@@#########@@@#  #@@@#########@@@#. @              ",
"           #@@@@@@@@@@@@@@@#..%@@@#########@@@# @               ",
"           ####@@@@@@@@@####..#@@@#########@@@#                 ",
"           #@@@#########@@@#..####@@@@@@@@@####                 ",
"           #@@@@@@@@@@@@@@@#..#@@@#########@@@#   @             ",
"    .......####@@@@@@@@@####..#@@@@@@@@@@@@@@@#  @  ........    ",
"    .......#@@@#########@@@#..####@@@@@@@@@#### @   ........    ",
"    .......#@@@@@@@@@@@@@@@#..#@@@#########@@@#     ........    ",
"    .......####@@@@@@@@@####..#@@@@@@@@@@@@@@@#  @  .@......    ",
"    .......#@@@#########@@@#  ####@@@@@@@@@####  @  @.......    ",
"    .......#@@@@@@@@@@@@@@@#  #@@@#########@@@#     ...@....    ",
"    .......####@@@@@@@@@####  &@@@@@@@@@@@@#########..@.....    ",
"    .......#@@@#########@@@#   ###@@@@@@@@#@@@@@@@@@#.......    ",
"           #@@@@@@@@@@@@@@@#      #########@@@@@@@@@###         ",
"           ####@@@@@@@@@####        +++#@@@#########@@@#        ",
"           #@@@#########@@@#        +++*@@@#########@@@#        ",
"           #@@@@@@@@@@@@@@@#        +++#@@@#########@@@#        ",
"           ####@@@@@@@@@####       @+++####@@@@@@@@@####        ",
"           #@@@#########@@@#       @+++#@@@#########@@@#        ",
"           #@@@@@@@@@@@@@@@#   @    +++#@@@@@@@@@@@@@@@#        ",
"           ####@@@@@@@@@####    @  ########@@@@@@@@@####        ",
"    ++++   #@@@#########@@@# @    #@@@##@#@#########@@@#        ",
"    ++++   &@@@@@@@@@@@@@@@#  @  #@@@@@=#@#@@@@@@@@@@@@#        ",
"    ++++    ###@@@@@@@@@###+    #@@@###@@#@#@@@@@@@@####        ",
"    ++++       #########++++   #@@@####@@#@#########@@@#        ",
"                          @   #@@@####@@#@@#@@@@@@@@@@@#....    ",
"                           @ #@@@####@@#@@@#@@@@@@@@####....    ",
"                            #@@@####@@#@@@##########@@@#....    ",
"                        @   #@@####@@#@@@#@@@@@@@@@@@@@#....    ",
"        ............     @@ #@@###@@#@@@###@@@@@@@@@####        ",
"        ............        #@@@@@@#@@@#@@@#########@@@#        ",
"        ............        ##=@@##@@@##@@@@@@@@@@@@@@@#        ",
"        ............        #@###@@@@# ####@@@@@@@@@####        ",
"        ............         #@@-@@@#  #@@@#########@@@#        ",
"        ............          #@@@##   &@@@@@@@@@@@@@@@#        ",
"        ............           ###..    ###@@@@@@@@@###         ",
"        ............            ....       #########            ",
"        ............                                            ",
"        ............                                            ",
"        ............                                            ",
"        ............                                            ",
"                                                                ",
"                                                                ",
"                                                                ",
"                                                                "};
