/* XPM */
static char * 4_xpm[] = {
"64 64 12 1",
" 	c #553F73",
".	c #38D973",
"+	c #F4B41B",
"@	c #000000",
"#	c #100918",
"$	c #6188D4",
"%	c #CED461",
"&	c #06030B",
"*	c #EC0202",
"=	c #031F0B",
"-	c #F7B61C",
";	c #F3B31B",
"                                                                ",
"                                                                ",
"                                                                ",
"                                                                ",
"                                        ....                    ",
"                                        ....                    ",
"                                        ....                    ",
"                                        ....                    ",
"                ....                    ........        ....    ",
"              + ...+    +               ........        ....    ",
"         +     +...+   +     +          ........        ....    ",
"          ++    ....       ++           ........        ....    ",
"        ....+  @@@@@@@@@..+.                ....    ........    ",
"        ....  @+++++++++@...    + +   +    +....    ........    ",
"        ....@@@+++++++++@@@.  ++   +  +   + ....+   ........    ",
"        +..@+++@@@@@@@@@+++@ +              ...+    ........    ",
"         + #+++@@@@@@@@@+++@      @@@@@@@@@   +     ....        ",
"           @+++@@@@@@@@@+++@     @+++++++++@        ....        ",
"           @@@@+++++++++@@@@   @@@+++++++++@@@    + ....        ",
"        $$$@+++@@@@@@@@@+++@  @+++@@@@@@@@@+++@  +  ....        ",
"        $$$@+++++++++++++++@  #+++@@@@@@@@@+++@ +               ",
"        $$$@@@@+++++++++@@@@  @+++@@@@@@@@@+++@                 ",
"        $$$@+++@@@@@@@@@+++@  @@@@+++++++++@@@@                 ",
"    $$$$%%%@+++++++++++++++@  @+++@@@@@@@@@+++@   +             ",
"    $$$$%%%@@@@+++++++++@@@@  @+++++++++++++++@  +              ",
"    $$$$%%%@+++@@@@@@@@@+++@  @@@@+++++++++@@@@ +               ",
"    $$$$%%%@+++++++++++++++@  @+++@@@@@@@@@+++@                 ",
"        $$$@@@@+++++++++@@@@  @+++++++++++++++@  +   +          ",
"        $$$@+++@@@@@@@@@+++@  @@@@+++++++++@@@@  +  +           ",
"        $$$@+++++++++++++++@  @+++@@@@@@@@@+++@        +        ",
"        $$$@@@@+++++++++@@@@  &++++++++++++@@@@@@@@@  +         ",
"           @+++@@@@@@@@@+++@   @@@++++++++@+++++++++@           ",
"           @+++++++++++++++@      @@@@@@@@@+++++++++@@@         ",
"           @@@@+++++++++@@@@           @+++@@@@@@@@@+++@        ",
"           @+++@@@@@@@@@+++@           #+++@@@@@@@@@+++@        ",
"           @+++++++++++++++@ ****      @+++@@@@@@@@@+++@        ",
"    ....   @@@@+++++++++@@@@ ****  +   @@@@+++++++++@@@@....    ",
"    ....   @+++@@@@@@@@@+++@ ****  +   @+++@@@@@@@@@+++@....    ",
"    ....   @+++++++++++++++@ **+*      @+++++++++++++++@....    ",
"    ....   @@@@+++++++++@@@@*%%%+**@@@@@@@@+++++++++@@@@....    ",
"    .......@+++@@@@@@@@@+++@*+%%%*@+++@@+@+@@@@@@@@@+++@        ",
"    .......=+++++++++++++++@*%+%%@+++++-@+@++++++++++++@        ",
"    ........@@@+++++++++@@@**%%%@+++@@@++@+@++++++++@@@@        ",
"    ........   @@@@@@@@@     **@+++@@@@++@+@@@@@@@@@+++@        ",
"        ....              +  *@+++@@@@++@++@+++++++++++@        ",
"        ....               + @+++@@@@++@+++@++++++++@@@@        ",
"        ....                @+++@@@@++@+++@@@@@@@@@@+++@        ",
"        ....            +   @++@@@@++@+++@+++++++++++++@        ",
"                         ++ @++@@@++@+++@@@+++++++++@@@@        ",
"                            @++++++@+++@+++@@@@@@@@@+++@        ",
"                            @@-++@@+++@@+++++++++++++++@        ",
"                            @+@@@++++@ @@@@+++++++++@@@@        ",
"                            .@++;+++@  @+++@@@@@@@@@+++@        ",
"                            ..@+++@@   &+++++++++++++++@        ",
"                            ...@@@      @@@+++++++++@@@         ",
"                            ....           @@@@@@@@@            ",
"                    ....    ....    ....                        ",
"                    ....    ....    ....                        ",
"                    ....    ....    ....                        ",
"                    ....    ....    ....                        ",
"                                                                ",
"                                                                ",
"                                                                ",
"                                                                "};
