/* XPM */
static char * 5_xpm[] = {
"64 64 13 1",
" 	c #553F73",
".	c #EC0202",
"+	c #38D973",
"@	c #F4B41B",
"#	c #CED461",
"$	c #000000",
"%	c #B661D4",
"&	c #100918",
"*	c #06030B",
"=	c #6188D4",
"-	c #F7B61C",
";	c #F3B31B",
">	c #031F0B",
"                                                                ",
"                                                                ",
"                                                                ",
"                                                                ",
"                                                                ",
"                                                                ",
"                                                                ",
"                                                                ",
"            ....            ++++                    ++++        ",
"            ..@.   @    @   ++++                    ++++        ",
"         @  ...@   @   @    +@++                    ++++        ",
"          @@....           @@+++                    ++++        ",
"        ....@##$$$$$$$$$++@+++++            %%%%                ",
"        ....##$@@@@@@@@@$+++++++@ @   @    @%%%%                ",
"        ....$$$@@@@@@@@@$$$+++@@   @  @   @ %%%%@               ",
"        @..$@@@$$$$$$$$$@@@$+@++            %%%@                ",
"         @ &@@@$$$$$$$$$@@@$      $$$$$$$$$%##@#%%%%            ",
"           $@@@$$$$$$$$$@@@$     $@@@@@@@@@$####%%%%            ",
"           $$$$@@@@@@@@@$$$$   $$$@@@@@@@@@$$$##%%@%            ",
"           $@@@$$$$$$$$$@@@$  $@@@$$$$$$$$$@@@$#%@%%            ",
"    ++++   $@@@@@@@@@@@@@@@$  &@@@$$$$$$$$$@@@$%@               ",
"    ++++   $$$$@@@@@@@@@$$$$  $@@@$$$$$$$$$@@@$%                ",
"    ++++   $@@@$$$$$$$$$@@@$  $$$$@@@@@@@@@$$$$%                ",
"    ++++   $@@@@@@@@@@@@@@@$  $@@@$$$$$$$$$@@@$%  @             ",
"           $$$$@@@@@@@@@$$$$  $@@@@@@@@@@@@@@@$  @      ++++    ",
"           $@@@$$$$$$$$$@@@$  $$$$@@@@@@@@@$$$$ @       ++++    ",
"           $@@@@@@@@@@@@@@@$  $@@@$$$$$$$$$@@@$         ++++    ",
"           $$$$@@@@@@@@@$$$$  $@@@@@@@@@@@@@@@$  @   @  ++++    ",
"        +++$@@@$$$$$$$$$@@@$  $$$$@@@@@@@@@$$$$  @  @+++++++    ",
"        +++$@@@@@@@@@@@@@@@$  $@@@$$$$$$$$$@@@$     +++@++++    ",
"        +++$$$$@@@@@@@@@$$$$  *@@@@@@@@@@@@$$$$$$$$$++@+++++    ",
"        +++$@@@$$$$$$$$$@@@$   $$$@@@@@@@@$@@@@@@@@@$+++++++    ",
"        +++$@@@@@@@@@@@@@@@$====  $$$$$$$$$@@@@@@@@@$$$+        ",
"        +++$$$$@@@@@@@@@$$$$====       $@@@$$$$$$$$$@@@$        ",
"        +++$@@@$$$$$$$$$@@@$====       &@@@$$$$$$$$$@@@$        ",
"        +++$@@@@@@@@@@@@@@@$====       $@@@$$$$$$$$$@@@$        ",
"           $$$$@@@@@@@@@$$$$####===@   $$$$@@@@@@@@@$$$$        ",
"           $@@@$$$$$$$$$@@@$####===@   $@@@$$$$$$$$$@@@$        ",
"           $@@@@@@@@@@@@@@@$###@====   $@@@@@@@@@@@@@@@$        ",
"           $$$$@@@@@@@@@$$$$####@==$$$$$$$$@@@@@@@@@$$$$        ",
"           $@@@$$$$$$$$$@@@$=@==  $@@@$$@$@$$$$$$$$$@@@$        ",
"           *@@@@@@@@@@@@@@@$==@= $@@@@@-$@$@@@@@@@@@@@@$        ",
"            $$$@@@@@@@@@$$$ ====$@@@$$$@@$@$@@@@@@@@$$$$        ",
"               $$$$$$$$$    ===$@@@$$$$@@$@$$$$$$$$$@@@$        ",
"            %%%%          @   $@@@$$$$@@$@@$@@@@@@@@@@@$        ",
"            %%%%           @ $@@@$$$$@@$@@@$@@@@@@@@$$$$        ",
"            %%%%            $@@@$$$$@@$@@@$$$$$$$$$$@@@$        ",
"            %%%%        @   $@@$$$$@@$@@@$@@@@@@@@@@@@@$        ",
"        %%%%####%%%%     @@ $@@$$$@@$@@@$$$@@@@@@@@@$$$$        ",
"        %%%%####%%%%        $@@@@@@$@@@$@@@$$$$$$$$$@@@$        ",
"        %%%%####%%%%        $$-@@$$@@@$$@@@@@@@@@@@@@@@$        ",
"        %%%%####%%%%        $@$$$@@@@$ $$$$@@@@@@@@@$$$$        ",
"            %%%%             $@@;@@@$++$@@@$$$$$$$$$@@@$        ",
"            %%%%              $@@@$$+++>@@@@@@@@@@@@@@@$        ",
"            %%%%               $$$  ++++$$$@@@@@@@@@$$$         ",
"            %%%%                    ++++   $$$$$$$$$            ",
"                                                                ",
"                                                                ",
"                                                                ",
"                                                                ",
"                                                                ",
"                                                                ",
"                                                                ",
"                                                                "};
