/* XPM */
static char * 6_xpm[] = {
"64 64 14 1",
" 	c #553F73",
".	c #B661D4",
"+	c #38D973",
"@	c #CED461",
"#	c #EC0202",
"$	c #F4B41B",
"%	c #000000",
"&	c #100918",
"*	c #6188D4",
"=	c #06030B",
"-	c #230000",
";	c #F7B61C",
">	c #F3B31B",
",	c #472D3C",
"                ....                                            ",
"                ....                                            ",
"                ....                                            ",
"                ....                                            ",
"    ++++    ....@@@@....            ++++                        ",
"    ++++    ....@@@@....            ++++                        ",
"    ++++    ....@@@@....            ++++                        ",
"    ++++    ....@@@@....            ++++    ####                ",
"    ++++++++    ....            ++++++++    ####        ++++    ",
"    ++++++++  $ ...$    $       ++++++++    ####        ++++    ",
"    +++++$++   $...$   $     $  ++++++++    ####        ++++    ",
"    ++++++$$    ....       $$   ++++++++####@@@@####    ++++    ",
"        ++++$  %%%%%%%%%  $     ++++    ####@@@@####++++++++    ",
"        ++++  %$$$$$$$$$%       $+$+  $ ###$@@@@####++++++++    ",
"        ++++%%%$$$$$$$$$%%%   $$+++$  $ ##$#@@@@$###++++++++    ",
"        $++%$$$%%%%%%%%%$$$% $  ++++        ###$    ++++++++    ",
"         $ &$$$%%%%%%%%%$$$%      %%%%%%%%% ##$#    ++++        ",
"           %$$$%%%%%%%%%$$$%     %$$$$$$$$$%####    ++++        ",
"           %%%%$$$$$$$$$%%%%   %%%$$$$$$$$$%%%##  $ ++++        ",
"           %$$$%%%%%%%%%$$$%  %$$$%%%%%%%%%$$$%  $  ++++        ",
"           %$$$$$$$$$$$$$$$%  &$$$%%%%%%%%%$$$%+$               ",
"           %%%%$$$$$$$$$%%%%  %$$$%%%%%%%%%$$$%+                ",
"           %$$$%%%%%%%%%$$$%  %%%%$$$$$$$$$%%%%+                ",
"           %$$$$$$$$$$$$$$$%  %$$$%%%%%%%%%$$$%+  $             ",
"           %%%%$$$$$$$$$%%%%  %$$$$$$$$$$$$$$$%++$++            ",
"           %$$$%%%%%%%%%$$$% *%%%%$$$$$$$$$%%%%+$+++            ",
"           %$$$$$$$$$$$$$$$% *%$$$%%%%%%%%%$$$%+++++            ",
"           %%%%$$$$$$$$$%%%% *%$$$$$$$$$$$$$$$%++$++ $          ",
"        +++%$$$%%%%%%%%%$$$% *%%%%$$$$$$$$$%%%% +$++$           ",
"        +++%$$$$$$$$$$$$$$$%  %$$$%%%%%%%%%$$$% ++++   $        ",
"        +++%%%%$$$$$$$$$%%%%  =$$$$$$$$$$$$%%%%%%%%%  $         ",
"        +++%$$$%%%%%%%%%$$$%   %%%$$$$$$$$%$$$$$$$$$%           ",
"    +++++++%$$$$$$$$$$$$$$$%     *%%%%%%%%%$$$$$$$$$%%%         ",
"    +++++++%%%%$$$$$$$$$%%%%           %$$$%%%%%%%%%$$$%        ",
"    +++++++%$$$%%%%%%%%%$$$%           &$$$%%%%%%%%%$$$%        ",
"    +++++++%$$$$$$$$$$$$$$$%           %$$$%%%%%%%%%$$$%        ",
"    ++++   %%%%$$$$$$$$$%%%%       $+++%%%%$$$$$$$$$%%%%        ",
"    ++++   %$$$%%%%%%%%%$$$%       $+++%$$$%%%%%%%%%$$$%        ",
"    ++++   %$$$$$$$$$$$$$$$%   $    +++%$$$$$$$$$$$$$$$%        ",
"    ++++   %%%%$$$$$$$$$%%%%    $  %%%%%%%%$$$$$$$$$%%%%        ",
"           %$$$%%%%%%%%%$$$% $    %$$$%%$%$%%%%%%%%%$$$%++++    ",
"           -$$$$$$$$$$$$$$$%  $  %$$$$$;%$%$$$$$$$$$$$$%++++    ",
"           #%%%$$$$$$$$$%%%     %$$$%%%$$%$%$$$$$$$$%%%%++++    ",
"           ####%%%%%%%%%       %$$$%%%%$$%$%%%%%%%%%$$$%++++    ",
"               ####     ++$+  %$$$%%%%$$%$$%$$$$$$$$$$$%++++    ",
"               ####     +++$ %$$$%%%%$$%$$$%$$$$$$$$%%%%++++    ",
"               ####     ++++%$$$%%%%$$%$$$%%%%%%%%%%$$$%++++    ",
"               ####     $+++%$$%%%%$$%$$$%$$$$$$$$$$$$$%++++    ",
"    ++++                +$$+%$$%%%$$%$$$%%%$$$$$$$$$%%%%        ",
"    ++++                ++++%$$$$$$%$$$%$$$%%%%%%%%%$$$%        ",
"    ++++                ++++%%;$$%%$$$%%$$$$$$$$$$$$$$$%        ",
"    ++++                ++++%$%%%$$$$% %%%%$$$$$$$$$%%%%        ",
"    ++++++++                +%$$>$$$%  %$$$%%%%%%%%%$$$%....    ",
"    ++++++++                ++%$$$%%   =$$$$$$$$$$$$$$$%....    ",
"    ++++++++                +++%%%      %%%$$$$$$$$$%%% ....    ",
"    ++++++++                ++++           %%%%%%%%%    ....    ",
"        ++++                                ++++    ....@@@@....",
"        ++++                                ++++    ....@@@@....",
"        ++++                                ++++    ....@@@@....",
"        ++++                                ++++    ....@@@@....",
"                                                        ....,,,,",
"                                                        ....,,,,",
"                                                        ....,,,,",
"                                                        ....,,,,"};
