/* XPM */
static char * 1_xpm[] = {
"64 64 6 1",
" 	c #553F73",
".	c #2DA02F",
"+	c #105A2E",
"@	c #E6482E",
"#	c #735D3F",
"$	c #3D240F",
"                                                                ",
"                                                                ",
"                                                                ",
"                            ........                            ",
"                           .++++++++.                           ",
"                           .++++++++.                           ",
"                           .++++++++.                           ",
"                           .++++++++.                           ",
"                           .++++++++.                           ",
"                           .++++++++.                           ",
"                           .++++++++.                           ",
"                        ....++++++++....                        ",
"                       .++++++++++++++++.                       ",
"                       .++++++++++++++++.                       ",
"                       .++++++++++++++++.                       ",
"                       .++++++++++++++++.                       ",
"                       .++++++++++++++++.                       ",
"                       .++++++++++++++++.                       ",
"                       .++++++++++++++++.                       ",
"                    ....++++++++++++++++....                    ",
"                   .++++++++@@++++++++++++++.                   ",
"                   .+++++++@@@++++++++++++++.                   ",
"                   .+++++++@++++++++++++++++.                   ",
"                   .+++@@@++@@@+++++++++++++.                   ",
"                   .++@@@@@@@@@@++++++++++++.                   ",
"                   .++@@@@@@++@@++++++++++++.                   ",
"                   .++@@@@@@++@@++++++++++++.                   ",
"                ....++@@@@@@@@@@++++++++++++....                ",
"               .++++++@@@@@@@@@@++++++++++++++++.               ",
"               .+++++++@@@@@@@@+++++++++++++++++.               ",
"               .+++++++@@@@@@@@+++++++++++++++++.               ",
"               .++++++++@@++@@++++++++++++++++++.               ",
"               .++++++++++++++++++++++++++++++++.               ",
"               .++++++++++++++++++++++++++++++++.               ",
"               .++++++++++++++++++++++++++++++++.               ",
"            ....++++++++++++++++++++++++++++++++....            ",
"           .+++++++++++++++++++++++++++++++@@+++++++.           ",
"           .++++++++++++++++++++++++++++++@@@+++++++.           ",
"           .++++++++++++++++++++++++++++++@+++++++++.           ",
"           .++++++++++++++++++++++++++@@@++@@@++++++.           ",
"           .+++++++++++++++++++++++++@@@@@@@@@@+++++.           ",
"           .+++++++++++++++++++++++++@@@@@@++@@+++++.           ",
"           .+++++++++++++++++++++++++@@@@@@++@@+++++.           ",
"           .+++++++++++++++++++++++++@@@@@@@@@@+++++.           ",
"           .+++++++++++++++++++++++++@@@@@@@@@@+++++.           ",
"           .++++++++++++++++++++++++++@@@@@@@@++++++.           ",
"           .++++++++++++++++++++++++++@@@@@@@@++++++.           ",
"           .+++++++++++++++++++++++++++@@++@@+++++++.           ",
"            ....++++++++++++++++++++++++++++++++....            ",
"               .++++++++++++++++++++++++++++++++.               ",
"               .++++++++++++++++++++++++++++++++.               ",
"               .++++++++++++++++++++++++++++++++.               ",
"                ................................                ",
"                                                                ",
"                                                                ",
"                            ########                            ",
"                           #$$$$$$$$#                           ",
"                           #$$$$$$$$#                           ",
"                           #$$$$$$$$#                           ",
"                           #$$$$$$$$#                           ",
"                            ########                            ",
"                                                                ",
"                                                                ",
"                                                                "};
