/* XPM */
static char * 2_xpm[] = {
"64 64 5 1",
" 	c #553F73",
".	c #2DA02F",
"+	c #105A2E",
"@	c #735D3F",
"#	c #3D240F",
"                                                                ",
"                                                                ",
"                                                                ",
"                            ........                            ",
"                           .++++++++.                           ",
"                           .++++++++.                           ",
"                           .++++++++.                           ",
"                           .++++++++.                           ",
"                           .++++++++.                           ",
"                           .++++++++.                           ",
"                           .++++++++.                           ",
"                        ....++++++++....                        ",
"                       .++++++++++++++++.                       ",
"                       .++++++++++++++++.                       ",
"                       .++++++++++++++++.                       ",
"                       .++++++++++++++++.                       ",
"                       .++++++++++++++++.                       ",
"                       .++++++++++++++++.                       ",
"                       .++++++++++++++++.                       ",
"                    ....++++++++++++++++....                    ",
"                   .++++++++++++++++++++++++.                   ",
"                   .++++++++++++++++++++++++.                   ",
"                   .++++++++++++++++++++++++.                   ",
"                   .++++++++++++++++++++++++.                   ",
"                    ....++++++++++++++++....                    ",
"                       .++++++++++++++++.                       ",
"                       .++++++++++++++++.                       ",
"                    ....++++++++++++++++....                    ",
"                   .++++................++++.                   ",
"                   .++++.              .++++.                   ",
"                   .++++.              .++++.                   ",
"                ....++++................++++....                ",
"               .++++++++++++++++++++++++++++++++.               ",
"               .++++++++++++++++++++++++++++++++.               ",
"               .++++++++++++++++++++++++++++++++.               ",
"               .++++++++++++++++++++++++++++++++.               ",
"                ....++++++++++++++++++++++++....                ",
"                   .++++++++++++++++++++++++.                   ",
"                   .++++++++++++++++++++++++.                   ",
"            ........++++++++++++++++++++++++........            ",
"           .++++++++........................++++++++.           ",
"           .++++++++.                      .++++++++.           ",
"           .++++++++.                      .++++++++.           ",
"           .++++++++........................++++++++.           ",
"           .++++++++++++++++++++++++++++++++++++++++.           ",
"           .++++++++++++++++++++++++++++++++++++++++.           ",
"           .++++++++++++++++++++++++++++++++++++++++.           ",
"           .++++++++++++++++++++++++++++++++++++++++.           ",
"            ....++++++++++++++++++++++++++++++++....            ",
"               .++++++++++++++++++++++++++++++++.               ",
"               .++++++++++++++++++++++++++++++++.               ",
"               .++++++++++++++++++++++++++++++++.               ",
"                ................................                ",
"                                                                ",
"                                                                ",
"                            @@@@@@@@                            ",
"                           @########@                           ",
"                           @########@                           ",
"                           @########@                           ",
"                           @########@                           ",
"                            @@@@@@@@                            ",
"                                                                ",
"                                                                ",
"                                                                "};
