/* XPM */
static char * 4_xpm[] = {
"64 64 6 1",
" 	c #553F73",
".	c #2DA02F",
"+	c #105A2E",
"@	c #B7D166",
"#	c #735D3F",
"$	c #3D240F",
"                                                                ",
"                                                                ",
"                                                                ",
"                        ................                        ",
"                       .++++++++++++++++.                       ",
"                       .++++++++++++++++.                       ",
"                       .++++++++++++++++.                       ",
"                    ....++++++++++++++++....                    ",
"                   .++++++++++++++++++++++++.                   ",
"                   .++++++++++++++++++++++++.                   ",
"                   .++++++++++++++++++++++++.                   ",
"                   .++++++++++++++++++++++++.                   ",
"                   .++++++++++++++++++++++++.                   ",
"                   .++++++++++++++++++@@@+++.                   ",
"                   .++++++++++++++++@@++@@++.                   ",
"                ....+++++++++++++++@@@@+@@++....                ",
"               .+++++++++++++++++++@@@@+++++++++.               ",
"               .++++++++++++++++++@@@@@@++++++++.               ",
"               .++++++++++++++++++@@@++@++++++++.               ",
"               .+++++++++++++++++@@@@++@@+++++++.               ",
"               .++++++++++++++++@@@@@@@@@@++++++.               ",
"               .++++++++++++++++@@@@@@@@@@++++++.               ",
"               .++++++++++++++++@@@@@@@@@@++++++.               ",
"            ....++++++++++++++++@@@@@@@@@@++++++....            ",
"           .++++++++++++++++++++@@@@@@@@@@++++++++++.           ",
"           .+++++++++++++++++++++@@@@@@@@+++++++++++.           ",
"           .+++++++++++++++++++++++@@@@+++++++++++++.           ",
"           .++++++++++++++++++++++++++++++++++++++++.           ",
"           .++++++++++++++++++++++++++++++++++++++++.           ",
"           .++++++++++++++++++++++++++++++++++++++++.           ",
"           .++++++++++++++++++++++++++++++++++++++++.           ",
"           .++++++++++++++++++++++++++++++++++++++++.           ",
"           .++++++++++++++++++++++++++++++++++++++++.           ",
"           .++++++++++++++++++++++++++++++++++++++++.           ",
"           .++++++++++++++++++++++++++++++++++++++++.           ",
"           .+++++++++++@@@++++++++++++++++++++++++++.           ",
"           .+++++++++@@++@@+++++++++++++++++++++++++.           ",
"           .++++++++@@@@+@@+++++++++++++++++++++++++.           ",
"           .++++++++@@@@++++++++++++++++++++++++++++.           ",
"           .+++++++@@@@@@+++++++++++++++++++++++++++.           ",
"           .+++++++@@@++@+++++++++++++++++++++++++++.           ",
"           .++++++@@@@++@@++++++++++++++++++++++++++.           ",
"           .+++++@@@@@@@@@@+++++++++++++++++++++++++.           ",
"           .+++++@@@@@@@@@@+++++++++++++++++++++++++.           ",
"           .+++++@@@@@@@@@@+++++++++++++++++++++++++.           ",
"           .+++++@@@@@@@@@@+++++++++++++++++++++++++.           ",
"           .+++++@@@@@@@@@@+++++++++++++++++++++++++.           ",
"           .++++++@@@@@@@@++++++++++++++++++++++++++.           ",
"            ....++++@@@@++++++++++++++++++++++++....            ",
"               .++++++++++++++++++++++++++++++++.               ",
"               .++++++++++++++++++++++++++++++++.               ",
"               .++++++++++++++++++++++++++++++++.               ",
"                ................................                ",
"                                                                ",
"                                                                ",
"                            ########                            ",
"                           #$$$$$$$$#                           ",
"                           #$$$$$$$$#                           ",
"                           #$$$$$$$$#                           ",
"                           #$$$$$$$$#                           ",
"                            ########                            ",
"                                                                ",
"                                                                ",
"                                                                "};
