/* XPM */
static char * 1_xpm[] = {
"64 64 3 1",
" 	c #553F73",
".	c #757575",
"+	c #562F33",
"                                                                ",
"                                                                ",
"                                                                ",
"                                                                ",
"                            ....                                ",
"                            ....                                ",
"                            ....                                ",
"                            ....                                ",
"                    ++++    ....    ++++                        ",
"                    ++++    ....    ++++                        ",
"                    ++++    ....    ++++                        ",
"                    ++++    ....    ++++                        ",
"        ....                                            ++++    ",
"        ....                                            ++++    ",
"        ....                                            ++++    ",
"        ....                                            ++++    ",
"        ........                                                ",
"        ........                                                ",
"        ........                                                ",
"        ........                                                ",
"            ....            ++++++++            ........        ",
"            ....            ++++++++            ........        ",
"            ....            ++++++++            ........        ",
"            ....            ++++++++            ........        ",
"                            ++++++++++++    ............        ",
"                            ++++++++++++    ............        ",
"                            ++++++++++++    ............        ",
"                            ++++++++++++    ............        ",
"                                ++++++++    ........            ",
"                                ++++++++    ........            ",
"                                ++++++++    ........            ",
"                                ++++++++    ........            ",
"    ....                            ++++    ....                ",
"    ....                            ++++    ....                ",
"    ....                            ++++    ....                ",
"    ....                            ++++    ....                ",
"                                                                ",
"                                                                ",
"                                                                ",
"                                                                ",
"                        ....                                    ",
"                        ....                                    ",
"                        ....                                    ",
"                        ....                                    ",
"        ++++        ........                                    ",
"        ++++        ........                                    ",
"        ++++        ........                                    ",
"        ++++        ........                                    ",
"        ++++++++    ....                        ++++            ",
"        ++++++++    ....                        ++++            ",
"        ++++++++    ....                        ++++            ",
"        ++++++++    ....                        ++++            ",
"            ++++                                ++++++++        ",
"            ++++                                ++++++++        ",
"            ++++                                ++++++++        ",
"            ++++                                ++++++++        ",
"                                ....                ++++        ",
"                                ....                ++++        ",
"                                ....                ++++        ",
"                                ....                ++++        ",
"                                                                ",
"                                                                ",
"                                                                ",
"                                                                "};
