/* XPM */
static char * 3_xpm[] = {
"64 64 3 1",
" 	c #553F73",
".	c #562F33",
"+	c #757575",
"                                                                ",
"                                                                ",
"                                                                ",
"                                                                ",
"                                ....                            ",
"                                ....                            ",
"                                ....                            ",
"                                ....                            ",
"                ....                                            ",
"                ....                                            ",
"                ....                                            ",
"                ....                                            ",
"                        ++++++++++++    ........                ",
"                        ++++++++++++    ........                ",
"                        ++++++++++++    ........                ",
"                        ++++++++++++    ........                ",
"            ........    ++++++++++++    ........    ++++        ",
"            ........    ++++++++++++    ........    ++++        ",
"            ........    ++++++++++++    ........    ++++        ",
"            ........    ++++++++++++    ........    ++++        ",
"            ........    ++++++++++++                            ",
"            ........    ++++++++++++                            ",
"            ........    ++++++++++++                            ",
"            ........    ++++++++++++                            ",
"                                        ............            ",
"                                        ............            ",
"                                        ............            ",
"                                        ............            ",
"    ++++    ............    ++++++++    ............            ",
"    ++++    ............    ++++++++    ............            ",
"    ++++    ............    ++++++++    ............            ",
"    ++++    ............    ++++++++    ............            ",
"            ............    ++++++++    ............    ++++    ",
"            ............    ++++++++    ............    ++++    ",
"            ............    ++++++++    ............    ++++    ",
"            ............    ++++++++    ............    ++++    ",
"            ............                                        ",
"            ............                                        ",
"            ............                                        ",
"            ............                                        ",
"                            ............    ++++++++            ",
"                            ............    ++++++++            ",
"                            ............    ++++++++            ",
"                            ............    ++++++++            ",
"        ....    ++++++++    ............    ++++++++            ",
"        ....    ++++++++    ............    ++++++++            ",
"        ....    ++++++++    ............    ++++++++            ",
"        ....    ++++++++    ............    ++++++++            ",
"                ++++++++    ............                        ",
"                ++++++++    ............                        ",
"                ++++++++    ............                        ",
"                ++++++++    ............                        ",
"                                            ....                ",
"                                            ....                ",
"                                            ....                ",
"                                            ....                ",
"                            ++++                                ",
"                            ++++                                ",
"                            ++++                                ",
"                            ++++                                ",
"                                                                ",
"                                                                ",
"                                                                ",
"                                                                "};
