/* XPM */
static char * 4_xpm[] = {
"64 64 5 1",
" 	c #553F73",
".	c #38D973",
"+	c #6188D4",
"@	c #CED461",
"#	c #EC0202",
"                                                                ",
"                                                                ",
"                                                                ",
"                                                                ",
"                                        ....                    ",
"                                        ....                    ",
"                                        ....                    ",
"                                        ....                    ",
"                ....                    ........        ....    ",
"                ....                    ........        ....    ",
"                ....                    ........        ....    ",
"                ....                    ........        ....    ",
"        ....    ....    ....                ....    ........    ",
"        ....    ....    ....                ....    ........    ",
"        ....    ....    ....                ....    ........    ",
"        ....    ....    ....                ....    ........    ",
"                                                    ....        ",
"                                      ++++          ....        ",
"                                      ++++          ....        ",
"        ++++                          ++++          ....        ",
"        ++++                          ++++                      ",
"        ++++                      ++++@@@@++++                  ",
"        ++++                      ++++@@@@++++                  ",
"    ++++@@@@++++                  ++++@@@@++++                  ",
"    ++++@@@@++++                  ++++@@@@++++                  ",
"    ++++@@@@++++                      ++++                      ",
"    ++++@@@@++++                      ++++                      ",
"        ++++                          ++++                      ",
"        ++++                          ++++                      ",
"        ++++                                                    ",
"        ++++                                                    ",
"                                                                ",
"                    ....                        ....            ",
"                    ....                        ....            ",
"                    ....                        ....            ",
"                    ....     ####               ....            ",
"    ....        ........     ####       ....    ....    ....    ",
"    ....        ........     ####       ....    ....    ....    ",
"    ....        ........     ####       ....    ....    ....    ",
"    ....        ........ ####@@@@####   ....    ....    ....    ",
"    ........    ....     ####@@@@####                           ",
"    ........    ....     ####@@@@####                           ",
"    ........    ....     ####@@@@####                           ",
"    ........    ....         ####                               ",
"        ....                 ####            ++++               ",
"        ....                 ####            ++++               ",
"        ....                 ####            ++++               ",
"        ....                                 ++++               ",
"                                         ++++@@@@++++           ",
"                                         ++++@@@@++++           ",
"                                         ++++@@@@++++           ",
"                                         ++++@@@@++++           ",
"                            ....             ++++               ",
"                            ....             ++++               ",
"                            ....             ++++               ",
"                            ....             ++++               ",
"                    ....    ....    ....                        ",
"                    ....    ....    ....                        ",
"                    ....    ....    ....                        ",
"                    ....    ....    ....                        ",
"                                                                ",
"                                                                ",
"                                                                ",
"                                                                "};
