/* XPM */
static char * 5_xpm[] = {
"64 64 6 1",
" 	c #553F73",
".	c #EC0202",
"+	c #38D973",
"@	c #CED461",
"#	c #B661D4",
"$	c #6188D4",
"                                                                ",
"                                                                ",
"                                                                ",
"                                                                ",
"                                                                ",
"                                                                ",
"                                                                ",
"                                                                ",
"            ....            ++++                    ++++        ",
"            ....            ++++                    ++++        ",
"            ....            ++++                    ++++        ",
"            ....            ++++                    ++++        ",
"        ....@@@@....    ++++++++            ####                ",
"        ....@@@@....    ++++++++            ####                ",
"        ....@@@@....    ++++++++            ####                ",
"        ....@@@@....    ++++++++            ####                ",
"            ....        ++++            ####@@@@####            ",
"            ....        ++++            ####@@@@####            ",
"            ....        ++++            ####@@@@####            ",
"            ....        ++++            ####@@@@####            ",
"    ++++                                    ####                ",
"    ++++                                    ####                ",
"    ++++                                    ####                ",
"    ++++                                    ####                ",
"                    ++++            ++++                ++++    ",
"                    ++++            ++++                ++++    ",
"                    ++++            ++++                ++++    ",
"                    ++++            ++++                ++++    ",
"        ++++                                        ++++++++    ",
"        ++++                                        ++++++++    ",
"        ++++                                        ++++++++    ",
"        ++++                                        ++++++++    ",
"        ++++++++            $$$$                    ++++        ",
"        ++++++++            $$$$                    ++++        ",
"        ++++++++            $$$$                    ++++        ",
"        ++++++++            $$$$                    ++++        ",
"            ++++        $$$$@@@@$$$$        ++++                ",
"            ++++        $$$$@@@@$$$$        ++++                ",
"            ++++        $$$$@@@@$$$$        ++++                ",
"            ++++        $$$$@@@@$$$$        ++++                ",
"                            $$$$                                ",
"                            $$$$                                ",
"                            $$$$                                ",
"                            $$$$                                ",
"            ####                                ....            ",
"            ####                                ....            ",
"            ####                                ....            ",
"            ####                                ....            ",
"        ####@@@@####                        ....@@@@....        ",
"        ####@@@@####                        ....@@@@....        ",
"        ####@@@@####                        ....@@@@....        ",
"        ####@@@@####                        ....@@@@....        ",
"            ####                    ++++        ....            ",
"            ####                    ++++        ....            ",
"            ####                    ++++        ....            ",
"            ####                    ++++        ....            ",
"                                                                ",
"                                                                ",
"                                                                ",
"                                                                ",
"                                                                ",
"                                                                ",
"                                                                ",
"                                                                "};
