/* XPM */
static char * 1_xpm[] = {
"64 64 6 1",
" 	c #553F73",
".	c #38D973",
"+	c #000000",
"@	c #F4B41B",
"#	c #6188D4",
"$	c #CED461",
"                                                                ",
"                                                                ",
"                                                                ",
"                                                                ",
"                                        ....                    ",
"                                        ....                    ",
"                                        ....                    ",
"                            ++++++++    ....                    ",
"                ....       +@@@@@@@@+   ........        ....    ",
"                ....       +@@@@@@@@+   ........        ....    ",
"                ....       +@@@@@@@@+   ........        ....    ",
"                ....    ++++@@@@@@@@++++........        ....    ",
"        ....    ....   +@@@@@@@@@@@@@@@@+   ....    ........    ",
"        ....    ....   +@@@@@@@@@@@@@@@@+   ....    ........    ",
"        ....    ....   +@@@@@@@@@@@@@@@@+   ....    ........    ",
"        ++++    ....   +@@@@@@@@@@@@@@@@+   ....    ++++....    ",
"       +@@@@+           ++++@@@@@@@@++++           +@@@@+       ",
"       +@@@@+              +@@@@@@@@+ ####         +@@@@+       ",
"       +@@@@+              +@@@@@@@@+ ####         +@@@@+       ",
"       +@@@@++++           +@@@@@@@@+ ####      ++++@@@@+       ",
"       +@@@@@@@@+          +@@@@@@@@+ ####     +@@@@@@@@+       ",
"       +@@@@@@@@+          +@@@@@@@@+#$$$$#### +@@@@@@@@+       ",
"       +@@@@@@@@+          +@@@@@@@@+#$$$$#### +@@@@@@@@+       ",
"    ###+@@@@@@@@+       ++++@@@@@@@@++++$$#### +@@@@@@@@+       ",
"    ###+@@@@++++       +@@@@@@@@@@@@@@@@+$####  ++++@@@@+       ",
"    ###+@@@@+###       +@@@@@@@@@@@@@@@@+#         +@@@@+       ",
"    ###+@@@@+###       +@@@@@@@@@@@@@@@@+#         +@@@@+       ",
"       +@@@@++++       +@@@@@@@@@@@@@@@@+#      ++++@@@@+       ",
"       +@@@@@@@@+      +@@@@++++++++@@@@+#     +@@@@@@@@+       ",
"       +@@@@@@@@+      +@@@@+      +@@@@+      +@@@@@@@@+       ",
"       +@@@@@@@@+      +@@@@+      +@@@@+      +@@@@@@@@+       ",
"       +@@@@@@@@++++++++@@@@+      +@@@@++++++++@@@@@@@@+       ",
"       +@@@@@@@@@@@@@@@@@@@@+      +@@@@@@@@@@@@@@@@@@@@+       ",
"       +@@@@@@@@@@@@@@@@@@@@+      +@@@@@@@@@@@@@@@@@@@@+       ",
"       +@@@@@@@@@@@@@@@@@@@@+      +@@@@@@@@@@@@@@@@@@@@+       ",
"       +@@@@@@@@@@@@@@@@@@@@++++++++@@@@@@@@@@@@@@@@@@@@+       ",
"    ...+@@@@@@@@@@@@@@@@@@@@@@@@@@@@@@@@@@@@@@@@@@@@@@@@+...    ",
"    ...+@@@@@@@@@@@@@@@@@@@@@@@@@@@@@@@@@@@@@@@@@@@@@@@@+...    ",
"    ...+@@@@@@@@@@@@@@@@@@@@@@@@@@@@@@@@@@@@@@@@@@@@@@@@+...    ",
"    ...+@@@@@@@@@@@@@@@@@@@@@@@@@@@@@@@@@@@@@@@@@@@@@@@@+...    ",
"    ....++++@@@@@@@@@@@@@@@@@@@@@@@@@@@@@@@@@@@@@@@@++++        ",
"    .......+@@@@@@@@@@@@@@@@@@@@@@@@@@@@@@@@@@@@@@@@+           ",
"    .......+@@@@@@@@@@@@@@@@@@@@@@@@@@@@@@@@@@@@@@@@+           ",
"    ....++++@@@@@@@@@@@@@@@@@@@@@@@@@@@@@@@@@@@@@@@@++++        ",
"       +@@@@++++++++@@@@@@@@@@@@@@@@@@@@@@@@++++++++@@@@+       ",
"       +@@@@+      +@@@@@@@@@@@@@@@@@@@@@@@@+####  +@@@@+       ",
"       +@@@@+      +@@@@@@@@@@@@@@@@@@@@@@@@+####  +@@@@+       ",
"       +@@@@++++++++@@@@@@@@@@@@@@@@@@@@@@@@++++++++@@@@+       ",
"        ++++@@@@@@@@++++++++++++++++++++++++@@@@@@@@++++        ",
"           +@@@@@@@@+                    ##+@@@@@@@@+           ",
"           +@@@@@@@@+                    ##+@@@@@@@@+           ",
"           +@@@@@@@@++++++++++++++++++++++++@@@@@@@@+           ",
"            ++++++++@@@@@@@@@@@@@@@@@@@@@@@@++++++++            ",
"                   +@@@@@@@@@@@@@@@@@@@@@@@@+####               ",
"                   +@@@@@@@@@@@@@@@@@@@@@@@@+####               ",
"                   +@@@@@@@@@@@@@@@@@@@@@@@@+####               ",
"                    ++++++++++++++++++++++++                    ",
"                    ....    ....    ....                        ",
"                    ....    ....    ....                        ",
"                    ....    ....    ....                        ",
"                                                                ",
"                                                                ",
"                                                                ",
"                                                                "};
