/* XPM */
static char * 2_xpm[] = {
"64 64 7 1",
" 	c #553F73",
".	c #38D973",
"+	c #000000",
"@	c #F4B41B",
"#	c #6188D4",
"$	c #CED461",
"%	c #EC0202",
"                                                                ",
"                                                                ",
"                                                                ",
"                                                                ",
"                                        ....                    ",
"                                        ....                    ",
"                                        ....                    ",
"                            ++++++++    ....                    ",
"                ....       +@@@@@@@@+   ........        ....    ",
"                ....       +@@@@@@@@+   ........        ....    ",
"                ....       +@@@@@@@@+   ........        ....    ",
"                ++++       +@@@@@@@@+   ....++++        ....    ",
"        ....   +@@@@+   ...+@@@@@@@@+      +@@@@+   ........    ",
"        ....   +@@@@+   ...+@@@@@@@@+      +@@@@+   ........    ",
"        ....   +@@@@+   ...+@@@@@@@@+      +@@@@+   ........    ",
"        ++++   +@@@@+   ...+@@@@@@@@+      +@@@@+   ++++....    ",
"       +@@@@+   ++++       +@@@@@@@@+       ++++   +@@@@+       ",
"       +@@@@+              +@@@@@@@@+ ####         +@@@@+       ",
"       +@@@@+              +@@@@@@@@+ ####         +@@@@+       ",
"       +@@@@++++    ++++   +@@@@@@@@+ ##++++    ++++@@@@+       ",
"       +@@@@@@@@+  +@@@@+   ++++++++  #+@@@@+  +@@@@@@@@+       ",
"       +@@@@@@@@+  +@@@@+         ####$+@@@@+# +@@@@@@@@+       ",
"       +@@@@@@@@+  +@@@@+         ####$+@@@@+# +@@@@@@@@+       ",
"    ###+@@@@@@@@+  +@@@@++++      ##++++@@@@+# +@@@@@@@@+       ",
"    ###+@@@@++++   +@@@@@@@@+     #+@@@@@@@@+#  ++++@@@@+       ",
"    ###+@@@@+###   +@@@@@@@@+      +@@@@@@@@+      +@@@@+       ",
"    ###+@@@@+###   +@@@@@@@@+      +@@@@@@@@+      +@@@@+       ",
"       +@@@@++++   +@@@@@@@@+      +@@@@@@@@+   ++++@@@@+       ",
"       +@@@@@@@@+  +@@@@++++        ++++@@@@+  +@@@@@@@@+       ",
"       +@@@@@@@@+  +@@@@+              +@@@@+  +@@@@@@@@+       ",
"       +@@@@@@@@+  +@@@@+              +@@@@+  +@@@@@@@@+       ",
"       +@@@@@@@@++++@@@@++++++++++++++++@@@@++++@@@@@@@@+       ",
"       +@@@@@@@@@@@@@@@@@@@@@@@@@@@@@@@@@@@@@@@@@@@@@@@@+       ",
"       +@@@@@@@@@@@@@@@@@@@@@@@@@@@@@@@@@@@@@@@@@@@@@@@@+       ",
"       +@@@@@@@@@@@@@@@@@@@@@@@@@@@@@@@@@@@@@@@@@@@@@@@@+       ",
"       +@@@@@@@@@@@@@@@@@@@@@@@@@@@@@@@@@@@@@@@@@@@@@@@@+       ",
"    ...+@@@@@@@@@@@@@@@@@@@@++++++++@@@@@@@@@@@@@@@@@@@@+...    ",
"    ...+@@@@@@@@@@@@@@@@@@@@+%%%%  +@@@@@@@@@@@@@@@@@@@@+...    ",
"    ...+@@@@@@@@@@@@@@@@@@@@+%%%%  +@@@@@@@@@@@@@@@@@@@@+...    ",
"    ...+@@@@@@@@@@@@@@@@@@@@+$$$$%%+@@@@@@@@@@@@@@@@@@@@+...    ",
"    ....++++@@@@@@@@@@@@@@@@+$$$$%%+@@@@@@@@@@@@@@@@++++        ",
"    .......+@@@@@@@@@@@@@@@@+$$$$%%+@@@@@@@@@@@@@@@@+           ",
"    .......+@@@@@@@@@@@@@@@@+$$$$%%+@@@@@@@@@@@@@@@@+           ",
"    ....++++@@@@@@@@@@@@@@@@++++++++@@@@@@@@@@@@@@@@++++        ",
"       +@@@@++++++++@@@@@@@@@@@@@@@@@@@@@@@@++++++++@@@@+       ",
"       +@@@@+      +@@@@@@@@@@@@@@@@@@@@@@@@+####  +@@@@+       ",
"       +@@@@+      +@@@@@@@@@@@@@@@@@@@@@@@@+####  +@@@@+       ",
"       +@@@@++++++++@@@@@@@@@@@@@@@@@@@@@@@@++++++++@@@@+       ",
"        ++++@@@@@@@@++++++++++++++++++++++++@@@@@@@@++++        ",
"           +@@@@@@@@+                    ##+@@@@@@@@+           ",
"           +@@@@@@@@+                    ##+@@@@@@@@+           ",
"           +@@@@@@@@++++++++++++++++++++++++@@@@@@@@+           ",
"            ++++++++@@@@@@@@@@@@@@@@@@@@@@@@++++++++            ",
"                   +@@@@@@@@@@@@@@@@@@@@@@@@+####               ",
"                   +@@@@@@@@@@@@@@@@@@@@@@@@+####               ",
"                   +@@@@@@@@@@@@@@@@@@@@@@@@+####               ",
"                    ++++++++++++++++++++++++                    ",
"                    ....    ....    ....                        ",
"                    ....    ....    ....                        ",
"                    ....    ....    ....                        ",
"                                                                ",
"                                                                ",
"                                                                ",
"                                                                "};
